<?xml version="1.0" encoding="us-ascii" standalone="no"?><svg xmlns="http://www.w3.org/2000/svg" xmlns:xlink="http://www.w3.org/1999/xlink" contentStyleType="text/css" height="621px" preserveAspectRatio="none" style="width:672px;height:621px;background:#FFFFFF;" version="1.1" viewBox="0 0 672 621" width="672px" zoomAndPan="magnify"><defs/><g><rect fill="#FFFFFF" height="91.0547" style="stroke:#181818;stroke-width:1.0;" width="10" x="232.5" y="145.3125"/><rect fill="#FFFFFF" height="164.0156" style="stroke:#181818;stroke-width:1.0;" width="10" x="232.5" y="327.4219"/><rect fill="#FFFFFF" height="60.7031" style="stroke:#181818;stroke-width:1.0;" width="10" x="336.5" y="175.6641"/><rect fill="#FFFFFF" height="133.6641" style="stroke:#181818;stroke-width:1.0;" width="10" x="336.5" y="357.7734"/><rect fill="#FFFFFF" height="30.3516" style="stroke:#181818;stroke-width:1.0;" width="10" x="440.5" y="206.0156"/><rect fill="#FFFFFF" height="103.3125" style="stroke:#181818;stroke-width:1.0;" width="10" x="440.5" y="388.125"/><rect fill="#FFFFFF" height="30.3516" style="stroke:#181818;stroke-width:1.0;" width="10" x="546.5" y="206.0156"/><rect fill="#FFFFFF" height="32.6094" style="stroke:#181818;stroke-width:1.0;" width="10" x="546.5" y="428.4766"/><line style="stroke:#181818;stroke-width:0.5;stroke-dasharray:5.0,5.0;" x1="24" x2="24" y1="82.6094" y2="539.7891"/><line style="stroke:#181818;stroke-width:0.5;stroke-dasharray:5.0,5.0;" x1="237" x2="237" y1="82.6094" y2="539.7891"/><line style="stroke:#181818;stroke-width:0.5;stroke-dasharray:5.0,5.0;" x1="341.5" x2="341.5" y1="82.6094" y2="539.7891"/><line style="stroke:#181818;stroke-width:0.5;stroke-dasharray:5.0,5.0;" x1="445.5" x2="445.5" y1="82.6094" y2="539.7891"/><line style="stroke:#181818;stroke-width:0.5;stroke-dasharray:5.0,5.0;" x1="551.5" x2="551.5" y1="82.6094" y2="539.7891"/><line style="stroke:#181818;stroke-width:0.5;stroke-dasharray:5.0,5.0;" x1="641.5" x2="641.5" y1="427.4297" y2="539.7891"/><text fill="#000000" font-family="sans-serif" font-size="14" lengthAdjust="spacing" textLength="33" x="5" y="79.5332">Actor</text><ellipse cx="24.5" cy="13.5" fill="#E2E2F0" rx="8" ry="8" style="stroke:#181818;stroke-width:0.5;"/><path d="M24.5,21.5 L24.5,48.5 M11.5,29.5 L37.5,29.5 M24.5,48.5 L11.5,63.5 M24.5,48.5 L37.5,63.5 " fill="none" style="stroke:#181818;stroke-width:0.5;"/><text fill="#000000" font-family="sans-serif" font-size="14" lengthAdjust="spacing" textLength="33" x="5" y="553.3223">Actor</text><ellipse cx="24.5" cy="564.8984" fill="#E2E2F0" rx="8" ry="8" style="stroke:#181818;stroke-width:0.5;"/><path d="M24.5,572.8984 L24.5,599.8984 M11.5,580.8984 L37.5,580.8984 M24.5,599.8984 L11.5,614.8984 M24.5,599.8984 L37.5,614.8984 " fill="none" style="stroke:#181818;stroke-width:0.5;"/><rect fill="#E2E2F0" height="31.6094" rx="2.5" ry="2.5" style="stroke:#181818;stroke-width:0.5;" width="47" x="214" y="50"/><text fill="#000000" font-family="sans-serif" font-size="14" lengthAdjust="spacing" textLength="33" x="221" y="71.5332">Form</text><rect fill="#E2E2F0" height="31.6094" rx="2.5" ry="2.5" style="stroke:#181818;stroke-width:0.5;" width="47" x="214" y="538.7891"/><text fill="#000000" font-family="sans-serif" font-size="14" lengthAdjust="spacing" textLength="33" x="221" y="560.3223">Form</text><rect fill="#E2E2F0" height="31.6094" rx="2.5" ry="2.5" style="stroke:#181818;stroke-width:0.5;" width="76" x="303.5" y="50"/><text fill="#000000" font-family="sans-serif" font-size="14" lengthAdjust="spacing" textLength="62" x="310.5" y="71.5332">Controller</text><rect fill="#E2E2F0" height="31.6094" rx="2.5" ry="2.5" style="stroke:#181818;stroke-width:0.5;" width="76" x="303.5" y="538.7891"/><text fill="#000000" font-family="sans-serif" font-size="14" lengthAdjust="spacing" textLength="62" x="310.5" y="560.3223">Controller</text><rect fill="#E2E2F0" height="31.6094" rx="2.5" ry="2.5" style="stroke:#181818;stroke-width:0.5;" width="70" x="410.5" y="50"/><text fill="#000000" font-family="sans-serif" font-size="14" lengthAdjust="spacing" textLength="56" x="417.5" y="71.5332">Scenario</text><rect fill="#E2E2F0" height="31.6094" rx="2.5" ry="2.5" style="stroke:#181818;stroke-width:0.5;" width="70" x="410.5" y="538.7891"/><text fill="#000000" font-family="sans-serif" font-size="14" lengthAdjust="spacing" textLength="56" x="417.5" y="560.3223">Scenario</text><rect fill="#E2E2F0" height="31.6094" rx="2.5" ry="2.5" style="stroke:#181818;stroke-width:0.5;" width="56" x="523.5" y="50"/><text fill="#000000" font-family="sans-serif" font-size="14" lengthAdjust="spacing" textLength="42" x="530.5" y="71.5332">Airport</text><rect fill="#E2E2F0" height="31.6094" rx="2.5" ry="2.5" style="stroke:#181818;stroke-width:0.5;" width="56" x="523.5" y="538.7891"/><text fill="#000000" font-family="sans-serif" font-size="14" lengthAdjust="spacing" textLength="42" x="530.5" y="560.3223">Airport</text><rect fill="#E2E2F0" height="31.6094" rx="2.5" ry="2.5" style="stroke:#181818;stroke-width:0.5;" width="50" x="616.5" y="538.7891"/><text fill="#000000" font-family="sans-serif" font-size="14" lengthAdjust="spacing" textLength="36" x="623.5" y="560.3223">Plane</text><rect fill="#FFFFFF" height="91.0547" style="stroke:#181818;stroke-width:1.0;" width="10" x="232.5" y="145.3125"/><rect fill="#FFFFFF" height="164.0156" style="stroke:#181818;stroke-width:1.0;" width="10" x="232.5" y="327.4219"/><rect fill="#FFFFFF" height="60.7031" style="stroke:#181818;stroke-width:1.0;" width="10" x="336.5" y="175.6641"/><rect fill="#FFFFFF" height="133.6641" style="stroke:#181818;stroke-width:1.0;" width="10" x="336.5" y="357.7734"/><rect fill="#FFFFFF" height="30.3516" style="stroke:#181818;stroke-width:1.0;" width="10" x="440.5" y="206.0156"/><rect fill="#FFFFFF" height="103.3125" style="stroke:#181818;stroke-width:1.0;" width="10" x="440.5" y="388.125"/><rect fill="#FFFFFF" height="30.3516" style="stroke:#181818;stroke-width:1.0;" width="10" x="546.5" y="206.0156"/><rect fill="#FFFFFF" height="32.6094" style="stroke:#181818;stroke-width:1.0;" width="10" x="546.5" y="428.4766"/><polygon fill="#181818" points="225.5,110.9609,235.5,114.9609,225.5,118.9609,229.5,114.9609" style="stroke:#181818;stroke-width:1.0;"/><line style="stroke:#181818;stroke-width:1.0;" x1="24.5" x2="231.5" y1="114.9609" y2="114.9609"/><text fill="#000000" font-family="sans-serif" font-size="13" font-weight="bold" lengthAdjust="spacing" textLength="7" x="31.5" y="110.1045">1</text><text fill="#000000" font-family="sans-serif" font-size="13" lengthAdjust="spacing" textLength="102" x="42.5" y="110.1045">Selects an airport</text><polygon fill="#181818" points="329.5,141.3125,339.5,145.3125,329.5,149.3125,333.5,145.3125" style="stroke:#181818;stroke-width:1.0;"/><line style="stroke:#181818;stroke-width:1.0;" x1="242.5" x2="335.5" y1="145.3125" y2="145.3125"/><text fill="#000000" font-family="sans-serif" font-size="13" font-weight="bold" lengthAdjust="spacing" textLength="7" x="249.5" y="140.4561">2</text><text fill="#000000" font-family="sans-serif" font-size="13" lengthAdjust="spacing" textLength="69" x="260.5" y="140.4561">GetPlanes()</text><polygon fill="#181818" points="433.5,171.6641,443.5,175.6641,433.5,179.6641,437.5,175.6641" style="stroke:#181818;stroke-width:1.0;"/><line style="stroke:#181818;stroke-width:1.0;" x1="346.5" x2="439.5" y1="175.6641" y2="175.6641"/><text fill="#000000" font-family="sans-serif" font-size="13" font-weight="bold" lengthAdjust="spacing" textLength="7" x="353.5" y="170.8076">3</text><text fill="#000000" font-family="sans-serif" font-size="13" lengthAdjust="spacing" textLength="69" x="364.5" y="170.8076">GetPlanes()</text><polygon fill="#181818" points="534.5,202.0156,544.5,206.0156,534.5,210.0156,538.5,206.0156" style="stroke:#181818;stroke-width:1.0;"/><line style="stroke:#181818;stroke-width:1.0;" x1="450.5" x2="540.5" y1="206.0156" y2="206.0156"/><text fill="#000000" font-family="sans-serif" font-size="13" font-weight="bold" lengthAdjust="spacing" textLength="7" x="457.5" y="201.1592">4</text><text fill="#000000" font-family="sans-serif" font-size="13" lengthAdjust="spacing" textLength="69" x="468.5" y="201.1592">GetPlanes()</text><polygon fill="#181818" points="248.5,232.3672,238.5,236.3672,248.5,240.3672,244.5,236.3672" style="stroke:#181818;stroke-width:1.0;"/><line style="stroke:#181818;stroke-width:1.0;stroke-dasharray:2.0,2.0;" x1="242.5" x2="550.5" y1="236.3672" y2="236.3672"/><text fill="#000000" font-family="sans-serif" font-size="13" font-weight="bold" lengthAdjust="spacing" textLength="7" x="254.5" y="231.5107">5</text><text fill="#000000" font-family="sans-serif" font-size="13" lengthAdjust="spacing" textLength="143" x="265.5" y="231.5107">&lt;Event&gt; OnPlaneUpdate</text><polygon fill="#181818" points="35.5,262.7188,25.5,266.7188,35.5,270.7188,31.5,266.7188" style="stroke:#181818;stroke-width:1.0;"/><line style="stroke:#181818;stroke-width:1.0;" x1="29.5" x2="236.5" y1="266.7188" y2="266.7188"/><text fill="#000000" font-family="sans-serif" font-size="13" font-weight="bold" lengthAdjust="spacing" textLength="7" x="41.5" y="261.8623">6</text><text fill="#000000" font-family="sans-serif" font-size="13" lengthAdjust="spacing" textLength="91" x="52.5" y="261.8623">Update the view</text><polygon fill="#181818" points="225.5,293.0703,235.5,297.0703,225.5,301.0703,229.5,297.0703" style="stroke:#181818;stroke-width:1.0;"/><line style="stroke:#181818;stroke-width:1.0;" x1="24.5" x2="231.5" y1="297.0703" y2="297.0703"/><text fill="#000000" font-family="sans-serif" font-size="13" font-weight="bold" lengthAdjust="spacing" textLength="7" x="31.5" y="292.2139">7</text><text fill="#000000" font-family="sans-serif" font-size="13" lengthAdjust="spacing" textLength="178" x="42.5" y="292.2139">Enters the plane's informations</text><polygon fill="#181818" points="329.5,323.4219,339.5,327.4219,329.5,331.4219,333.5,327.4219" style="stroke:#181818;stroke-width:1.0;"/><line style="stroke:#181818;stroke-width:1.0;" x1="242.5" x2="335.5" y1="327.4219" y2="327.4219"/><text fill="#000000" font-family="sans-serif" font-size="13" font-weight="bold" lengthAdjust="spacing" textLength="7" x="249.5" y="322.5654">8</text><text fill="#000000" font-family="sans-serif" font-size="13" lengthAdjust="spacing" textLength="64" x="260.5" y="322.5654">AddPlane()</text><polygon fill="#181818" points="433.5,353.7734,443.5,357.7734,433.5,361.7734,437.5,357.7734" style="stroke:#181818;stroke-width:1.0;"/><line style="stroke:#181818;stroke-width:1.0;" x1="346.5" x2="439.5" y1="357.7734" y2="357.7734"/><text fill="#000000" font-family="sans-serif" font-size="13" font-weight="bold" lengthAdjust="spacing" textLength="7" x="353.5" y="352.917">9</text><text fill="#000000" font-family="sans-serif" font-size="13" lengthAdjust="spacing" textLength="64" x="364.5" y="352.917">AddPlane()</text><polygon fill="#181818" points="539.5,384.125,549.5,388.125,539.5,392.125,543.5,388.125" style="stroke:#181818;stroke-width:1.0;"/><line style="stroke:#181818;stroke-width:1.0;" x1="450.5" x2="545.5" y1="388.125" y2="388.125"/><text fill="#000000" font-family="sans-serif" font-size="13" font-weight="bold" lengthAdjust="spacing" textLength="14" x="457.5" y="383.2686">10</text><text fill="#000000" font-family="sans-serif" font-size="13" lengthAdjust="spacing" textLength="64" x="475.5" y="383.2686">AddPlane()</text><polygon fill="#181818" points="604.5,414.4766,614.5,418.4766,604.5,422.4766,608.5,418.4766" style="stroke:#181818;stroke-width:1.0;"/><line style="stroke:#181818;stroke-width:1.0;" x1="551.5" x2="610.5" y1="418.4766" y2="418.4766"/><text fill="#000000" font-family="sans-serif" font-size="13" font-weight="bold" lengthAdjust="spacing" textLength="14" x="558.5" y="413.6201">11</text><text fill="#000000" font-family="sans-serif" font-size="13" lengthAdjust="spacing" textLength="23" x="576.5" y="413.6201">new</text><rect fill="#E2E2F0" height="31.6094" rx="2.5" ry="2.5" style="stroke:#181818;stroke-width:0.5;" width="50" x="616.5" y="396.125"/><text fill="#000000" font-family="sans-serif" font-size="14" lengthAdjust="spacing" textLength="36" x="623.5" y="417.6582">Plane</text><polygon fill="#181818" points="562.5,457.0859,552.5,461.0859,562.5,465.0859,558.5,461.0859" style="stroke:#181818;stroke-width:1.0;"/><line style="stroke:#181818;stroke-width:1.0;stroke-dasharray:2.0,2.0;" x1="556.5" x2="640.5" y1="461.0859" y2="461.0859"/><text fill="#000000" font-family="sans-serif" font-size="13" font-weight="bold" lengthAdjust="spacing" textLength="14" x="568.5" y="456.2295">12</text><text fill="#000000" font-family="sans-serif" font-size="13" lengthAdjust="spacing" textLength="4" x="586.5" y="456.2295">&#160;</text><polygon fill="#181818" points="248.5,487.4375,238.5,491.4375,248.5,495.4375,244.5,491.4375" style="stroke:#181818;stroke-width:1.0;"/><line style="stroke:#181818;stroke-width:1.0;stroke-dasharray:2.0,2.0;" x1="242.5" x2="550.5" y1="491.4375" y2="491.4375"/><text fill="#000000" font-family="sans-serif" font-size="13" font-weight="bold" lengthAdjust="spacing" textLength="14" x="254.5" y="486.5811">13</text><text fill="#000000" font-family="sans-serif" font-size="13" lengthAdjust="spacing" textLength="143" x="272.5" y="486.5811">&lt;Event&gt; OnPlaneUpdate</text><polygon fill="#181818" points="35.5,517.7891,25.5,521.7891,35.5,525.7891,31.5,521.7891" style="stroke:#181818;stroke-width:1.0;"/><line style="stroke:#181818;stroke-width:1.0;" x1="29.5" x2="236.5" y1="521.7891" y2="521.7891"/><text fill="#000000" font-family="sans-serif" font-size="13" font-weight="bold" lengthAdjust="spacing" textLength="14" x="41.5" y="516.9326">14</text><text fill="#000000" font-family="sans-serif" font-size="13" lengthAdjust="spacing" textLength="91" x="59.5" y="516.9326">Update the view</text><!--SRC=[dP7FReCm3CRlUGhVkXqOTpGXeQdhSPEgFa0Ml3KIECmnzFKNmlWZGSMqIvJOty-EFn-k8etFqhIfD4bRLq_6rQd7xnR9O59Q_SMwLagtugYjFv33tOXZAFfJnHEI75uTrv316Iiqua4JQCkDOr4n4nGlZeHTLI47tGdbFNH4__3OrxET5emrr48MeBD1qcpTFMHMgqaQi6BeVOyQfNFa5r0ZcCmZFHyx9CdXZMAXIrC6G9MuOXUXgS4YjlZg8Xfd7YqQtCnWw05oHUWitbOk7qcGVSptUyE31qkV8QV5ElBRbXTb6GVuk-DRnAxXMz1aXs7itr4mUvqFWG1J67Rbwv1CvYvRvlzdSN7wtGrDdz_RqWy0]--></g></svg>