<?xml version="1.0" encoding="us-ascii" standalone="no"?><svg xmlns="http://www.w3.org/2000/svg" xmlns:xlink="http://www.w3.org/1999/xlink" contentStyleType="text/css" height="917px" preserveAspectRatio="none" style="width:2039px;height:917px;background:#FFFFFF;" version="1.1" viewBox="0 0 2039 917" width="2039px" zoomAndPan="magnify"><defs/><g><!--cluster vue--><g id="cluster_vue"><rect fill="none" height="135" rx="2.5" ry="2.5" style="stroke:#181818;stroke-width:1.0;" width="192" x="202" y="203"/><text fill="#000000" font-family="sans-serif" font-size="14" font-weight="bold" lengthAdjust="spacing" textLength="27" x="284.5" y="219.5332">vue</text></g><!--cluster Controlleur--><g id="cluster_Controlleur"><rect fill="none" height="334" rx="2.5" ry="2.5" style="stroke:#181818;stroke-width:1.0;" width="600" x="7" y="399"/><text fill="#000000" font-family="sans-serif" font-size="14" font-weight="bold" lengthAdjust="spacing" textLength="80" x="267" y="415.5332">Controlleur</text></g><!--cluster Model--><g id="cluster_Model"><rect fill="none" height="904" rx="2.5" ry="2.5" style="stroke:#181818;stroke-width:1.0;" width="1402" x="631" y="7"/><text fill="#000000" font-family="sans-serif" font-size="14" font-weight="bold" lengthAdjust="spacing" textLength="44" x="1310" y="23.5332">Model</text></g><!--class View--><g id="elem_View"><rect codeLine="3" fill="#F1F1F1" height="83.2188" id="View" rx="2.5" ry="2.5" style="stroke:#181818;stroke-width:0.5;" width="159" x="218.5" y="239"/><ellipse cx="279.25" cy="255" fill="#ADD1B2" rx="11" ry="11" style="stroke:#181818;stroke-width:1.0;"/><path d="M282.0156,250.875 Q282.1719,250.6563 282.3594,250.5469 Q282.5469,250.4375 282.7656,250.4375 Q283.1406,250.4375 283.375,250.7031 Q283.6094,250.9531 283.6094,251.5625 L283.6094,253.0156 Q283.6094,253.625 283.375,253.8906 Q283.1406,254.1563 282.7656,254.1563 Q282.4219,254.1563 282.2188,253.9531 Q282.0156,253.7656 281.9063,253.25 Q281.8594,252.8906 281.6719,252.7031 Q281.3438,252.3281 280.7344,252.1094 Q280.125,251.8906 279.5,251.8906 Q278.7344,251.8906 278.0938,252.2188 Q277.4688,252.5469 276.9688,253.2969 Q276.4844,254.0469 276.4844,255.0781 L276.4844,256.1719 Q276.4844,257.4063 277.375,258.2344 Q278.2656,259.0469 279.8594,259.0469 Q280.7969,259.0469 281.4531,258.7969 Q281.8438,258.6406 282.2656,258.2031 Q282.5313,257.9375 282.6719,257.8594 Q282.8281,257.7813 283.0313,257.7813 Q283.3594,257.7813 283.6094,258.0469 Q283.875,258.2969 283.875,258.6406 Q283.875,258.9844 283.5313,259.3906 Q283.0313,259.9688 282.2344,260.2969 Q281.1563,260.75 279.8594,260.75 Q278.3438,260.75 277.1406,260.125 Q276.1563,259.625 275.4688,258.5625 Q274.7813,257.4844 274.7813,256.2031 L274.7813,255.0469 Q274.7813,253.7188 275.3906,252.5781 Q276.0156,251.4219 277.1094,250.8125 Q278.2031,250.1875 279.4375,250.1875 Q280.1719,250.1875 280.8125,250.3594 Q281.4688,250.5156 282.0156,250.875 Z " fill="#000000"/><text fill="#000000" font-family="sans-serif" font-size="14" lengthAdjust="spacing" textLength="29" x="299.75" y="260.7285">View</text><line style="stroke:#181818;stroke-width:0.5;" x1="219.5" x2="376.5" y1="271" y2="271"/><rect fill="none" height="6" style="stroke:#C82930;stroke-width:1.0;" width="6" x="226.5" y="282.3047"/><text fill="#000000" font-family="sans-serif" font-size="14" lengthAdjust="spacing" textLength="133" x="238.5" y="289.5332">Controller _controller</text><ellipse cx="229.5" cy="302.9141" fill="none" rx="3" ry="3" style="stroke:#038048;stroke-width:1.0;"/><text fill="#000000" font-family="sans-serif" font-size="14" lengthAdjust="spacing" textLength="65" x="238.5" y="307.1426">Form form</text><line style="stroke:#181818;stroke-width:0.5;" x1="219.5" x2="376.5" y1="314.2188" y2="314.2188"/></g><!--class Controller--><g id="elem_Controller"><rect codeLine="10" fill="#F1F1F1" height="281.9531" id="Controller" rx="2.5" ry="2.5" style="stroke:#181818;stroke-width:0.5;" width="550" x="23" y="435"/><ellipse cx="262.75" cy="451" fill="#ADD1B2" rx="11" ry="11" style="stroke:#181818;stroke-width:1.0;"/><path d="M265.5156,446.875 Q265.6719,446.6563 265.8594,446.5469 Q266.0469,446.4375 266.2656,446.4375 Q266.6406,446.4375 266.875,446.7031 Q267.1094,446.9531 267.1094,447.5625 L267.1094,449.0156 Q267.1094,449.625 266.875,449.8906 Q266.6406,450.1563 266.2656,450.1563 Q265.9219,450.1563 265.7188,449.9531 Q265.5156,449.7656 265.4063,449.25 Q265.3594,448.8906 265.1719,448.7031 Q264.8438,448.3281 264.2344,448.1094 Q263.625,447.8906 263,447.8906 Q262.2344,447.8906 261.5938,448.2188 Q260.9688,448.5469 260.4688,449.2969 Q259.9844,450.0469 259.9844,451.0781 L259.9844,452.1719 Q259.9844,453.4063 260.875,454.2344 Q261.7656,455.0469 263.3594,455.0469 Q264.2969,455.0469 264.9531,454.7969 Q265.3438,454.6406 265.7656,454.2031 Q266.0313,453.9375 266.1719,453.8594 Q266.3281,453.7813 266.5313,453.7813 Q266.8594,453.7813 267.1094,454.0469 Q267.375,454.2969 267.375,454.6406 Q267.375,454.9844 267.0313,455.3906 Q266.5313,455.9688 265.7344,456.2969 Q264.6563,456.75 263.3594,456.75 Q261.8438,456.75 260.6406,456.125 Q259.6563,455.625 258.9688,454.5625 Q258.2813,453.4844 258.2813,452.2031 L258.2813,451.0469 Q258.2813,449.7188 258.8906,448.5781 Q259.5156,447.4219 260.6094,446.8125 Q261.7031,446.1875 262.9375,446.1875 Q263.6719,446.1875 264.3125,446.3594 Q264.9688,446.5156 265.5156,446.875 Z " fill="#000000"/><text fill="#000000" font-family="sans-serif" font-size="14" lengthAdjust="spacing" textLength="62" x="283.25" y="456.7285">Controller</text><line style="stroke:#181818;stroke-width:0.5;" x1="24" x2="572" y1="467" y2="467"/><text fill="#000000" font-family="sans-serif" font-size="18" font-weight="bold" lengthAdjust="spacing" textLength="83" x="43" y="489.6855">Singleton</text><ellipse cx="34" cy="503.9453" fill="none" rx="3" ry="3" style="stroke:#038048;stroke-width:1.0;"/><text fill="#000000" font-family="sans-serif" font-size="14" lengthAdjust="spacing" textLength="116" x="43" y="508.1738">Scenario Scenario</text><ellipse cx="34" cy="521.5547" fill="none" rx="3" ry="3" style="stroke:#038048;stroke-width:1.0;"/><text fill="#000000" font-family="sans-serif" font-size="14" lengthAdjust="spacing" textLength="62" x="43" y="525.7832">View View</text><line style="stroke:#181818;stroke-width:0.5;" x1="24" x2="572" y1="532.8594" y2="532.8594"/><ellipse cx="34" cy="547.1641" fill="#84BE84" rx="3" ry="3" style="stroke:#038048;stroke-width:1.0;"/><text fill="#000000" font-family="sans-serif" font-size="14" lengthAdjust="spacing" textLength="161" x="43" y="551.3926">Controller GetController()</text><ellipse cx="34" cy="564.7734" fill="#84BE84" rx="3" ry="3" style="stroke:#038048;stroke-width:1.0;"/><text fill="#000000" font-family="sans-serif" font-size="14" lengthAdjust="spacing" textLength="487" x="43" y="569.002">void AddAirport(String name, int x, int y, int passengerTraffic, int cargoTraffic)</text><ellipse cx="34" cy="582.3828" fill="#84BE84" rx="3" ry="3" style="stroke:#038048;stroke-width:1.0;"/><text fill="#000000" font-family="sans-serif" font-size="14" lengthAdjust="spacing" textLength="524" x="43" y="586.6113">void EditAirport(int id, String name, int x, int y, int passengerTraffic, int cargoTraffic)</text><ellipse cx="34" cy="599.9922" fill="#84BE84" rx="3" ry="3" style="stroke:#038048;stroke-width:1.0;"/><text fill="#000000" font-family="sans-serif" font-size="14" lengthAdjust="spacing" textLength="153" x="43" y="604.2207">void DeleteAirport(int id)</text><ellipse cx="34" cy="617.6016" fill="#84BE84" rx="3" ry="3" style="stroke:#038048;stroke-width:1.0;"/><text fill="#000000" font-family="sans-serif" font-size="14" lengthAdjust="spacing" textLength="449" x="43" y="621.8301">void AddPlane(String name, int x, int y, int speed, int maintenanceTime)</text><ellipse cx="34" cy="635.2109" fill="#84BE84" rx="3" ry="3" style="stroke:#038048;stroke-width:1.0;"/><text fill="#000000" font-family="sans-serif" font-size="14" lengthAdjust="spacing" textLength="128" x="43" y="639.4395">void SaveScenario()</text><ellipse cx="34" cy="652.8203" fill="#84BE84" rx="3" ry="3" style="stroke:#038048;stroke-width:1.0;"/><text fill="#000000" font-family="sans-serif" font-size="14" lengthAdjust="spacing" textLength="128" x="43" y="657.0488">void LoadScenario()</text><ellipse cx="34" cy="670.4297" fill="#84BE84" rx="3" ry="3" style="stroke:#038048;stroke-width:1.0;"/><text fill="#000000" font-family="sans-serif" font-size="14" lengthAdjust="spacing" textLength="133" x="43" y="674.6582">void ResetScenario()</text><ellipse cx="34" cy="688.0391" fill="#84BE84" rx="3" ry="3" style="stroke:#038048;stroke-width:1.0;"/><text fill="#000000" font-family="sans-serif" font-size="14" lengthAdjust="spacing" textLength="131" x="43" y="692.2676">String[] GetAirports()</text><ellipse cx="34" cy="705.6484" fill="#84BE84" rx="3" ry="3" style="stroke:#038048;stroke-width:1.0;"/><text fill="#000000" font-family="sans-serif" font-size="14" lengthAdjust="spacing" textLength="176" x="43" y="709.877">String[] GetPlanes(int airop)</text></g><!--class Scenario--><g id="elem_Scenario"><rect codeLine="28" fill="#F1F1F1" height="188.875" id="Scenario" rx="2.5" ry="2.5" style="stroke:#181818;stroke-width:0.5;" width="550" x="647" y="186"/><ellipse cx="889.75" cy="202" fill="#ADD1B2" rx="11" ry="11" style="stroke:#181818;stroke-width:1.0;"/><path d="M892.5156,197.875 Q892.6719,197.6563 892.8594,197.5469 Q893.0469,197.4375 893.2656,197.4375 Q893.6406,197.4375 893.875,197.7031 Q894.1094,197.9531 894.1094,198.5625 L894.1094,200.0156 Q894.1094,200.625 893.875,200.8906 Q893.6406,201.1563 893.2656,201.1563 Q892.9219,201.1563 892.7188,200.9531 Q892.5156,200.7656 892.4063,200.25 Q892.3594,199.8906 892.1719,199.7031 Q891.8438,199.3281 891.2344,199.1094 Q890.625,198.8906 890,198.8906 Q889.2344,198.8906 888.5938,199.2188 Q887.9688,199.5469 887.4688,200.2969 Q886.9844,201.0469 886.9844,202.0781 L886.9844,203.1719 Q886.9844,204.4063 887.875,205.2344 Q888.7656,206.0469 890.3594,206.0469 Q891.2969,206.0469 891.9531,205.7969 Q892.3438,205.6406 892.7656,205.2031 Q893.0313,204.9375 893.1719,204.8594 Q893.3281,204.7813 893.5313,204.7813 Q893.8594,204.7813 894.1094,205.0469 Q894.375,205.2969 894.375,205.6406 Q894.375,205.9844 894.0313,206.3906 Q893.5313,206.9688 892.7344,207.2969 Q891.6563,207.75 890.3594,207.75 Q888.8438,207.75 887.6406,207.125 Q886.6563,206.625 885.9688,205.5625 Q885.2813,204.4844 885.2813,203.2031 L885.2813,202.0469 Q885.2813,200.7188 885.8906,199.5781 Q886.5156,198.4219 887.6094,197.8125 Q888.7031,197.1875 889.9375,197.1875 Q890.6719,197.1875 891.3125,197.3594 Q891.9688,197.5156 892.5156,197.875 Z " fill="#000000"/><text fill="#000000" font-family="sans-serif" font-size="14" lengthAdjust="spacing" textLength="56" x="910.25" y="207.7285">Scenario</text><line style="stroke:#181818;stroke-width:0.5;" x1="648" x2="1196" y1="218" y2="218"/><ellipse cx="658" cy="232.3047" fill="none" rx="3" ry="3" style="stroke:#038048;stroke-width:1.0;"/><text fill="#000000" font-family="sans-serif" font-size="14" lengthAdjust="spacing" textLength="103" x="667" y="236.5332">Airport[] Airports</text><ellipse cx="658" cy="249.9141" fill="none" rx="3" ry="3" style="stroke:#038048;stroke-width:1.0;"/><text fill="#000000" font-family="sans-serif" font-size="14" lengthAdjust="spacing" textLength="112" x="667" y="254.1426">int FrequencyFire</text><ellipse cx="658" cy="267.5234" fill="none" rx="3" ry="3" style="stroke:#038048;stroke-width:1.0;"/><text fill="#000000" font-family="sans-serif" font-size="14" lengthAdjust="spacing" textLength="135" x="667" y="271.752">int FrequencyRescue</text><ellipse cx="658" cy="285.1328" fill="none" rx="3" ry="3" style="stroke:#038048;stroke-width:1.0;"/><text fill="#000000" font-family="sans-serif" font-size="14" lengthAdjust="spacing" textLength="128" x="667" y="289.3613">int FrequencyRecon</text><line style="stroke:#181818;stroke-width:0.5;" x1="648" x2="1196" y1="296.4375" y2="296.4375"/><ellipse cx="658" cy="310.7422" fill="#84BE84" rx="3" ry="3" style="stroke:#038048;stroke-width:1.0;"/><text fill="#000000" font-family="sans-serif" font-size="14" lengthAdjust="spacing" textLength="487" x="667" y="314.9707">void AddAirport(String name, int x, int y, int passengerTraffic, int cargoTraffic)</text><ellipse cx="658" cy="328.3516" fill="#84BE84" rx="3" ry="3" style="stroke:#038048;stroke-width:1.0;"/><text fill="#000000" font-family="sans-serif" font-size="14" lengthAdjust="spacing" textLength="524" x="667" y="332.5801">void EditAirport(int id, String name, int x, int y, int passengerTraffic, int cargoTraffic)</text><ellipse cx="658" cy="345.9609" fill="#84BE84" rx="3" ry="3" style="stroke:#038048;stroke-width:1.0;"/><text fill="#000000" font-family="sans-serif" font-size="14" lengthAdjust="spacing" textLength="153" x="667" y="350.1895">void DeleteAirport(int id)</text><ellipse cx="658" cy="363.5703" fill="#84BE84" rx="3" ry="3" style="stroke:#038048;stroke-width:1.0;"/><text fill="#000000" font-family="sans-serif" font-size="14" lengthAdjust="spacing" textLength="449" x="667" y="367.7988">void AddPlane(String name, int x, int y, int speed, int maintenanceTime)</text></g><!--class IXmlSerializable--><g id="elem_IXmlSerializable"><rect codeLine="39" fill="#F1F1F1" height="83.2188" id="IXmlSerializable" rx="2.5" ry="2.5" style="stroke:#181818;stroke-width:0.5;" width="132" x="1167" y="43"/><ellipse cx="1182" cy="59" fill="#B4A7E5" rx="11" ry="11" style="stroke:#181818;stroke-width:1.0;"/><path d="M1182.9531,55.6406 L1182.9531,62.2969 L1184.6719,62.2969 Q1185.2813,62.2969 1185.5469,62.5313 Q1185.8125,62.7656 1185.8125,63.1563 Q1185.8125,63.5313 1185.5469,63.7656 Q1185.2813,64 1184.6719,64 L1179.5313,64 Q1178.9219,64 1178.6563,63.7656 Q1178.3906,63.5313 1178.3906,63.1406 Q1178.3906,62.7656 1178.6563,62.5313 Q1178.9219,62.2969 1179.5313,62.2969 L1181.25,62.2969 L1181.25,55.6406 L1179.5313,55.6406 Q1178.9219,55.6406 1178.6563,55.4063 Q1178.3906,55.1719 1178.3906,54.7813 Q1178.3906,54.4063 1178.6563,54.1719 Q1178.9219,53.9375 1179.5313,53.9375 L1184.6719,53.9375 Q1185.2813,53.9375 1185.5469,54.1719 Q1185.8125,54.4063 1185.8125,54.7813 Q1185.8125,55.1719 1185.5469,55.4063 Q1185.2813,55.6406 1184.6719,55.6406 L1182.9531,55.6406 Z " fill="#000000"/><text fill="#000000" font-family="sans-serif" font-size="14" font-style="italic" lengthAdjust="spacing" textLength="100" x="1196" y="64.7285">IXmlSerializable</text><line style="stroke:#181818;stroke-width:0.5;" x1="1168" x2="1298" y1="75" y2="75"/><line style="stroke:#181818;stroke-width:0.5;" x1="1168" x2="1298" y1="83" y2="83"/><ellipse cx="1178" cy="97.3047" fill="#84BE84" rx="3" ry="3" style="stroke:#038048;stroke-width:1.0;"/><text fill="#000000" font-family="sans-serif" font-size="14" lengthAdjust="spacing" textLength="95" x="1187" y="101.5332">void WriteXml()</text><ellipse cx="1178" cy="114.9141" fill="#84BE84" rx="3" ry="3" style="stroke:#038048;stroke-width:1.0;"/><text fill="#000000" font-family="sans-serif" font-size="14" lengthAdjust="spacing" textLength="96" x="1187" y="119.1426">void ReadXml()</text></g><!--class Position--><g id="elem_Position"><rect codeLine="44" fill="#F1F1F1" height="83.2188" id="Position" rx="2.5" ry="2.5" style="stroke:#181818;stroke-width:0.5;" width="82" x="1093" y="794.5"/><ellipse cx="1108" cy="810.5" fill="#ADD1B2" rx="11" ry="11" style="stroke:#181818;stroke-width:1.0;"/><path d="M1110.7656,806.375 Q1110.9219,806.1563 1111.1094,806.0469 Q1111.2969,805.9375 1111.5156,805.9375 Q1111.8906,805.9375 1112.125,806.2031 Q1112.3594,806.4531 1112.3594,807.0625 L1112.3594,808.5156 Q1112.3594,809.125 1112.125,809.3906 Q1111.8906,809.6563 1111.5156,809.6563 Q1111.1719,809.6563 1110.9688,809.4531 Q1110.7656,809.2656 1110.6563,808.75 Q1110.6094,808.3906 1110.4219,808.2031 Q1110.0938,807.8281 1109.4844,807.6094 Q1108.875,807.3906 1108.25,807.3906 Q1107.4844,807.3906 1106.8438,807.7188 Q1106.2188,808.0469 1105.7188,808.7969 Q1105.2344,809.5469 1105.2344,810.5781 L1105.2344,811.6719 Q1105.2344,812.9063 1106.125,813.7344 Q1107.0156,814.5469 1108.6094,814.5469 Q1109.5469,814.5469 1110.2031,814.2969 Q1110.5938,814.1406 1111.0156,813.7031 Q1111.2813,813.4375 1111.4219,813.3594 Q1111.5781,813.2813 1111.7813,813.2813 Q1112.1094,813.2813 1112.3594,813.5469 Q1112.625,813.7969 1112.625,814.1406 Q1112.625,814.4844 1112.2813,814.8906 Q1111.7813,815.4688 1110.9844,815.7969 Q1109.9063,816.25 1108.6094,816.25 Q1107.0938,816.25 1105.8906,815.625 Q1104.9063,815.125 1104.2188,814.0625 Q1103.5313,812.9844 1103.5313,811.7031 L1103.5313,810.5469 Q1103.5313,809.2188 1104.1406,808.0781 Q1104.7656,806.9219 1105.8594,806.3125 Q1106.9531,805.6875 1108.1875,805.6875 Q1108.9219,805.6875 1109.5625,805.8594 Q1110.2188,806.0156 1110.7656,806.375 Z " fill="#000000"/><text fill="#000000" font-family="sans-serif" font-size="14" lengthAdjust="spacing" textLength="50" x="1122" y="816.2285">Position</text><line style="stroke:#181818;stroke-width:0.5;" x1="1094" x2="1174" y1="826.5" y2="826.5"/><ellipse cx="1104" cy="840.8047" fill="none" rx="3" ry="3" style="stroke:#038048;stroke-width:1.0;"/><text fill="#000000" font-family="sans-serif" font-size="14" lengthAdjust="spacing" textLength="27" x="1113" y="845.0332">int X</text><ellipse cx="1104" cy="858.4141" fill="none" rx="3" ry="3" style="stroke:#038048;stroke-width:1.0;"/><text fill="#000000" font-family="sans-serif" font-size="14" lengthAdjust="spacing" textLength="28" x="1113" y="862.6426">int Y</text><line style="stroke:#181818;stroke-width:0.5;" x1="1094" x2="1174" y1="869.7188" y2="869.7188"/></g><!--class Plane--><g id="elem_Plane"><rect codeLine="49" fill="#F1F1F1" height="118.4375" id="Plane" rx="2.5" ry="2.5" style="stroke:#181818;stroke-width:0.5;" width="157" x="1457.5" y="777"/><ellipse cx="1513.75" cy="793" fill="#A9DCDF" rx="11" ry="11" style="stroke:#181818;stroke-width:1.0;"/><path d="M1515.9375,794.7656 L1511.7969,794.7656 L1511.375,795.7969 L1511.7969,795.7969 Q1512.4063,795.7969 1512.6719,796.0313 Q1512.9375,796.2656 1512.9375,796.6563 Q1512.9375,797.0313 1512.6719,797.2656 Q1512.4063,797.5 1511.7969,797.5 L1509.5,797.5 Q1508.8906,797.5 1508.6406,797.2656 Q1508.375,797.0313 1508.375,796.6406 Q1508.375,796.2656 1508.6563,796.0313 Q1508.9219,795.7813 1509.5469,795.7969 L1512.2188,789.1406 L1511.1094,789.1406 Q1510.5,789.1406 1510.2344,788.9063 Q1509.9688,788.6719 1509.9688,788.2813 Q1509.9688,787.9063 1510.2344,787.6719 Q1510.5,787.4375 1511.1094,787.4375 L1514.7813,787.4375 L1518.1719,795.7969 Q1518.7656,795.7969 1518.9531,795.9375 Q1519.3438,796.2031 1519.3438,796.6563 Q1519.3438,797.0313 1519.0781,797.2656 Q1518.8281,797.5 1518.2188,797.5 L1515.9219,797.5 Q1515.3125,797.5 1515.0469,797.2656 Q1514.7813,797.0313 1514.7813,796.6406 Q1514.7813,796.2656 1515.0469,796.0313 Q1515.3125,795.7969 1515.9219,795.7969 L1516.3438,795.7969 L1515.9375,794.7656 Z M1515.2188,793.0625 L1513.8594,789.6875 L1512.4844,793.0625 L1515.2188,793.0625 Z " fill="#000000"/><text fill="#000000" font-family="sans-serif" font-size="14" font-style="italic" lengthAdjust="spacing" textLength="36" x="1534.25" y="798.7285">Plane</text><line style="stroke:#181818;stroke-width:0.5;" x1="1458.5" x2="1613.5" y1="809" y2="809"/><ellipse cx="1468.5" cy="823.3047" fill="none" rx="3" ry="3" style="stroke:#038048;stroke-width:1.0;"/><text fill="#000000" font-family="sans-serif" font-size="14" lengthAdjust="spacing" textLength="77" x="1477.5" y="827.5332">String Name</text><ellipse cx="1468.5" cy="840.9141" fill="none" rx="3" ry="3" style="stroke:#038048;stroke-width:1.0;"/><text fill="#000000" font-family="sans-serif" font-size="14" lengthAdjust="spacing" textLength="78" x="1477.5" y="845.1426">Position Pos</text><ellipse cx="1468.5" cy="858.5234" fill="none" rx="3" ry="3" style="stroke:#038048;stroke-width:1.0;"/><text fill="#000000" font-family="sans-serif" font-size="14" lengthAdjust="spacing" textLength="60" x="1477.5" y="862.752">int Speed</text><ellipse cx="1468.5" cy="876.1328" fill="none" rx="3" ry="3" style="stroke:#038048;stroke-width:1.0;"/><text fill="#000000" font-family="sans-serif" font-size="14" lengthAdjust="spacing" textLength="131" x="1477.5" y="880.3613">int MaintenanceTime</text><line style="stroke:#181818;stroke-width:0.5;" x1="1458.5" x2="1613.5" y1="887.4375" y2="887.4375"/></g><!--class PlaneTransport--><g id="elem_PlaneTransport"><rect codeLine="56" fill="#F1F1F1" height="83.2188" id="PlaneTransport" rx="2.5" ry="2.5" style="stroke:#181818;stroke-width:0.5;" width="148" x="1407" y="534.5"/><ellipse cx="1430.1" cy="550.5" fill="#A9DCDF" rx="11" ry="11" style="stroke:#181818;stroke-width:1.0;"/><path d="M1432.2875,552.2656 L1428.1469,552.2656 L1427.725,553.2969 L1428.1469,553.2969 Q1428.7563,553.2969 1429.0219,553.5313 Q1429.2875,553.7656 1429.2875,554.1563 Q1429.2875,554.5313 1429.0219,554.7656 Q1428.7563,555 1428.1469,555 L1425.85,555 Q1425.2406,555 1424.9906,554.7656 Q1424.725,554.5313 1424.725,554.1406 Q1424.725,553.7656 1425.0063,553.5313 Q1425.2719,553.2813 1425.8969,553.2969 L1428.5688,546.6406 L1427.4594,546.6406 Q1426.85,546.6406 1426.5844,546.4063 Q1426.3188,546.1719 1426.3188,545.7813 Q1426.3188,545.4063 1426.5844,545.1719 Q1426.85,544.9375 1427.4594,544.9375 L1431.1313,544.9375 L1434.5219,553.2969 Q1435.1156,553.2969 1435.3031,553.4375 Q1435.6938,553.7031 1435.6938,554.1563 Q1435.6938,554.5313 1435.4281,554.7656 Q1435.1781,555 1434.5688,555 L1432.2719,555 Q1431.6625,555 1431.3969,554.7656 Q1431.1313,554.5313 1431.1313,554.1406 Q1431.1313,553.7656 1431.3969,553.5313 Q1431.6625,553.2969 1432.2719,553.2969 L1432.6938,553.2969 L1432.2875,552.2656 Z M1431.5688,550.5625 L1430.2094,547.1875 L1428.8344,550.5625 L1431.5688,550.5625 Z " fill="#000000"/><text fill="#000000" font-family="sans-serif" font-size="14" font-style="italic" lengthAdjust="spacing" textLength="98" x="1445.9" y="556.2285">PlaneTransport</text><line style="stroke:#181818;stroke-width:0.5;" x1="1408" x2="1554" y1="566.5" y2="566.5"/><ellipse cx="1418" cy="580.8047" fill="none" rx="3" ry="3" style="stroke:#038048;stroke-width:1.0;"/><text fill="#000000" font-family="sans-serif" font-size="14" lengthAdjust="spacing" textLength="105" x="1427" y="585.0332">int TimeToBoard</text><ellipse cx="1418" cy="598.4141" fill="none" rx="3" ry="3" style="stroke:#038048;stroke-width:1.0;"/><text fill="#000000" font-family="sans-serif" font-size="14" lengthAdjust="spacing" textLength="122" x="1427" y="602.6426">int TimeToDeboard</text><line style="stroke:#181818;stroke-width:0.5;" x1="1408" x2="1554" y1="609.7188" y2="609.7188"/></g><!--class PlaneSupport--><g id="elem_PlaneSupport"><rect codeLine="61" fill="#F1F1F1" height="48" id="PlaneSupport" rx="2.5" ry="2.5" style="stroke:#181818;stroke-width:0.5;" width="118" x="1699" y="552"/><ellipse cx="1714" cy="568" fill="#A9DCDF" rx="11" ry="11" style="stroke:#181818;stroke-width:1.0;"/><path d="M1716.1875,569.7656 L1712.0469,569.7656 L1711.625,570.7969 L1712.0469,570.7969 Q1712.6563,570.7969 1712.9219,571.0313 Q1713.1875,571.2656 1713.1875,571.6563 Q1713.1875,572.0313 1712.9219,572.2656 Q1712.6563,572.5 1712.0469,572.5 L1709.75,572.5 Q1709.1406,572.5 1708.8906,572.2656 Q1708.625,572.0313 1708.625,571.6406 Q1708.625,571.2656 1708.9063,571.0313 Q1709.1719,570.7813 1709.7969,570.7969 L1712.4688,564.1406 L1711.3594,564.1406 Q1710.75,564.1406 1710.4844,563.9063 Q1710.2188,563.6719 1710.2188,563.2813 Q1710.2188,562.9063 1710.4844,562.6719 Q1710.75,562.4375 1711.3594,562.4375 L1715.0313,562.4375 L1718.4219,570.7969 Q1719.0156,570.7969 1719.2031,570.9375 Q1719.5938,571.2031 1719.5938,571.6563 Q1719.5938,572.0313 1719.3281,572.2656 Q1719.0781,572.5 1718.4688,572.5 L1716.1719,572.5 Q1715.5625,572.5 1715.2969,572.2656 Q1715.0313,572.0313 1715.0313,571.6406 Q1715.0313,571.2656 1715.2969,571.0313 Q1715.5625,570.7969 1716.1719,570.7969 L1716.5938,570.7969 L1716.1875,569.7656 Z M1715.4688,568.0625 L1714.1094,564.6875 L1712.7344,568.0625 L1715.4688,568.0625 Z " fill="#000000"/><text fill="#000000" font-family="sans-serif" font-size="14" font-style="italic" lengthAdjust="spacing" textLength="86" x="1728" y="573.7285">PlaneSupport</text><line style="stroke:#181818;stroke-width:0.5;" x1="1700" x2="1816" y1="584" y2="584"/><line style="stroke:#181818;stroke-width:0.5;" x1="1700" x2="1816" y1="592" y2="592"/></g><!--class Airport--><g id="elem_Airport"><rect codeLine="64" fill="#F1F1F1" height="153.6563" id="Airport" rx="2.5" ry="2.5" style="stroke:#181818;stroke-width:0.5;" width="475" x="896.5" y="499"/><ellipse cx="1108.75" cy="515" fill="#ADD1B2" rx="11" ry="11" style="stroke:#181818;stroke-width:1.0;"/><path d="M1111.5156,510.875 Q1111.6719,510.6563 1111.8594,510.5469 Q1112.0469,510.4375 1112.2656,510.4375 Q1112.6406,510.4375 1112.875,510.7031 Q1113.1094,510.9531 1113.1094,511.5625 L1113.1094,513.0156 Q1113.1094,513.625 1112.875,513.8906 Q1112.6406,514.1563 1112.2656,514.1563 Q1111.9219,514.1563 1111.7188,513.9531 Q1111.5156,513.7656 1111.4063,513.25 Q1111.3594,512.8906 1111.1719,512.7031 Q1110.8438,512.3281 1110.2344,512.1094 Q1109.625,511.8906 1109,511.8906 Q1108.2344,511.8906 1107.5938,512.2188 Q1106.9688,512.5469 1106.4688,513.2969 Q1105.9844,514.0469 1105.9844,515.0781 L1105.9844,516.1719 Q1105.9844,517.4063 1106.875,518.2344 Q1107.7656,519.0469 1109.3594,519.0469 Q1110.2969,519.0469 1110.9531,518.7969 Q1111.3438,518.6406 1111.7656,518.2031 Q1112.0313,517.9375 1112.1719,517.8594 Q1112.3281,517.7813 1112.5313,517.7813 Q1112.8594,517.7813 1113.1094,518.0469 Q1113.375,518.2969 1113.375,518.6406 Q1113.375,518.9844 1113.0313,519.3906 Q1112.5313,519.9688 1111.7344,520.2969 Q1110.6563,520.75 1109.3594,520.75 Q1107.8438,520.75 1106.6406,520.125 Q1105.6563,519.625 1104.9688,518.5625 Q1104.2813,517.4844 1104.2813,516.2031 L1104.2813,515.0469 Q1104.2813,513.7188 1104.8906,512.5781 Q1105.5156,511.4219 1106.6094,510.8125 Q1107.7031,510.1875 1108.9375,510.1875 Q1109.6719,510.1875 1110.3125,510.3594 Q1110.9688,510.5156 1111.5156,510.875 Z " fill="#000000"/><text fill="#000000" font-family="sans-serif" font-size="14" lengthAdjust="spacing" textLength="42" x="1129.25" y="520.7285">Airport</text><line style="stroke:#181818;stroke-width:0.5;" x1="897.5" x2="1370.5" y1="531" y2="531"/><ellipse cx="907.5" cy="545.3047" fill="none" rx="3" ry="3" style="stroke:#038048;stroke-width:1.0;"/><text fill="#000000" font-family="sans-serif" font-size="14" lengthAdjust="spacing" textLength="77" x="916.5" y="549.5332">String Name</text><ellipse cx="907.5" cy="562.9141" fill="none" rx="3" ry="3" style="stroke:#038048;stroke-width:1.0;"/><text fill="#000000" font-family="sans-serif" font-size="14" lengthAdjust="spacing" textLength="91" x="916.5" y="567.1426">Plane[] Planes</text><ellipse cx="907.5" cy="580.5234" fill="none" rx="3" ry="3" style="stroke:#038048;stroke-width:1.0;"/><text fill="#000000" font-family="sans-serif" font-size="14" lengthAdjust="spacing" textLength="127" x="916.5" y="584.752">int PassengerTraffic</text><ellipse cx="907.5" cy="598.1328" fill="none" rx="3" ry="3" style="stroke:#038048;stroke-width:1.0;"/><text fill="#000000" font-family="sans-serif" font-size="14" lengthAdjust="spacing" textLength="98" x="916.5" y="602.3613">int CargoTraffic</text><ellipse cx="907.5" cy="615.7422" fill="none" rx="3" ry="3" style="stroke:#038048;stroke-width:1.0;"/><text fill="#000000" font-family="sans-serif" font-size="14" lengthAdjust="spacing" textLength="139" x="916.5" y="619.9707">event OnPlaneUpdate</text><line style="stroke:#181818;stroke-width:0.5;" x1="897.5" x2="1370.5" y1="627.0469" y2="627.0469"/><ellipse cx="907.5" cy="641.3516" fill="#84BE84" rx="3" ry="3" style="stroke:#038048;stroke-width:1.0;"/><text fill="#000000" font-family="sans-serif" font-size="14" lengthAdjust="spacing" textLength="449" x="916.5" y="645.5801">void AddPlane(String name, int x, int y, int speed, int maintenanceTime)</text></g><!--class PlaneCargo--><g id="elem_PlaneCargo"><rect codeLine="73" fill="#F1F1F1" height="48" id="PlaneCargo" rx="2.5" ry="2.5" style="stroke:#181818;stroke-width:0.5;" width="107" x="1447.5" y="256.5"/><ellipse cx="1462.5" cy="272.5" fill="#ADD1B2" rx="11" ry="11" style="stroke:#181818;stroke-width:1.0;"/><path d="M1465.2656,268.375 Q1465.4219,268.1563 1465.6094,268.0469 Q1465.7969,267.9375 1466.0156,267.9375 Q1466.3906,267.9375 1466.625,268.2031 Q1466.8594,268.4531 1466.8594,269.0625 L1466.8594,270.5156 Q1466.8594,271.125 1466.625,271.3906 Q1466.3906,271.6563 1466.0156,271.6563 Q1465.6719,271.6563 1465.4688,271.4531 Q1465.2656,271.2656 1465.1563,270.75 Q1465.1094,270.3906 1464.9219,270.2031 Q1464.5938,269.8281 1463.9844,269.6094 Q1463.375,269.3906 1462.75,269.3906 Q1461.9844,269.3906 1461.3438,269.7188 Q1460.7188,270.0469 1460.2188,270.7969 Q1459.7344,271.5469 1459.7344,272.5781 L1459.7344,273.6719 Q1459.7344,274.9063 1460.625,275.7344 Q1461.5156,276.5469 1463.1094,276.5469 Q1464.0469,276.5469 1464.7031,276.2969 Q1465.0938,276.1406 1465.5156,275.7031 Q1465.7813,275.4375 1465.9219,275.3594 Q1466.0781,275.2813 1466.2813,275.2813 Q1466.6094,275.2813 1466.8594,275.5469 Q1467.125,275.7969 1467.125,276.1406 Q1467.125,276.4844 1466.7813,276.8906 Q1466.2813,277.4688 1465.4844,277.7969 Q1464.4063,278.25 1463.1094,278.25 Q1461.5938,278.25 1460.3906,277.625 Q1459.4063,277.125 1458.7188,276.0625 Q1458.0313,274.9844 1458.0313,273.7031 L1458.0313,272.5469 Q1458.0313,271.2188 1458.6406,270.0781 Q1459.2656,268.9219 1460.3594,268.3125 Q1461.4531,267.6875 1462.6875,267.6875 Q1463.4219,267.6875 1464.0625,267.8594 Q1464.7188,268.0156 1465.2656,268.375 Z " fill="#000000"/><text fill="#000000" font-family="sans-serif" font-size="14" lengthAdjust="spacing" textLength="75" x="1476.5" y="278.2285">PlaneCargo</text><line style="stroke:#181818;stroke-width:0.5;" x1="1448.5" x2="1553.5" y1="288.5" y2="288.5"/><line style="stroke:#181818;stroke-width:0.5;" x1="1448.5" x2="1553.5" y1="296.5" y2="296.5"/></g><!--class PlaneRecon--><g id="elem_PlaneRecon"><rect codeLine="74" fill="#F1F1F1" height="48" id="PlaneRecon" rx="2.5" ry="2.5" style="stroke:#181818;stroke-width:0.5;" width="109" x="1627.5" y="256.5"/><ellipse cx="1642.5" cy="272.5" fill="#ADD1B2" rx="11" ry="11" style="stroke:#181818;stroke-width:1.0;"/><path d="M1645.2656,268.375 Q1645.4219,268.1563 1645.6094,268.0469 Q1645.7969,267.9375 1646.0156,267.9375 Q1646.3906,267.9375 1646.625,268.2031 Q1646.8594,268.4531 1646.8594,269.0625 L1646.8594,270.5156 Q1646.8594,271.125 1646.625,271.3906 Q1646.3906,271.6563 1646.0156,271.6563 Q1645.6719,271.6563 1645.4688,271.4531 Q1645.2656,271.2656 1645.1563,270.75 Q1645.1094,270.3906 1644.9219,270.2031 Q1644.5938,269.8281 1643.9844,269.6094 Q1643.375,269.3906 1642.75,269.3906 Q1641.9844,269.3906 1641.3438,269.7188 Q1640.7188,270.0469 1640.2188,270.7969 Q1639.7344,271.5469 1639.7344,272.5781 L1639.7344,273.6719 Q1639.7344,274.9063 1640.625,275.7344 Q1641.5156,276.5469 1643.1094,276.5469 Q1644.0469,276.5469 1644.7031,276.2969 Q1645.0938,276.1406 1645.5156,275.7031 Q1645.7813,275.4375 1645.9219,275.3594 Q1646.0781,275.2813 1646.2813,275.2813 Q1646.6094,275.2813 1646.8594,275.5469 Q1647.125,275.7969 1647.125,276.1406 Q1647.125,276.4844 1646.7813,276.8906 Q1646.2813,277.4688 1645.4844,277.7969 Q1644.4063,278.25 1643.1094,278.25 Q1641.5938,278.25 1640.3906,277.625 Q1639.4063,277.125 1638.7188,276.0625 Q1638.0313,274.9844 1638.0313,273.7031 L1638.0313,272.5469 Q1638.0313,271.2188 1638.6406,270.0781 Q1639.2656,268.9219 1640.3594,268.3125 Q1641.4531,267.6875 1642.6875,267.6875 Q1643.4219,267.6875 1644.0625,267.8594 Q1644.7188,268.0156 1645.2656,268.375 Z " fill="#000000"/><text fill="#000000" font-family="sans-serif" font-size="14" lengthAdjust="spacing" textLength="77" x="1656.5" y="278.2285">PlaneRecon</text><line style="stroke:#181818;stroke-width:0.5;" x1="1628.5" x2="1735.5" y1="288.5" y2="288.5"/><line style="stroke:#181818;stroke-width:0.5;" x1="1628.5" x2="1735.5" y1="296.5" y2="296.5"/></g><!--class PlanePassengers--><g id="elem_PlanePassengers"><rect codeLine="75" fill="#F1F1F1" height="48" id="PlanePassengers" rx="2.5" ry="2.5" style="stroke:#181818;stroke-width:0.5;" width="143" x="1269.5" y="256.5"/><ellipse cx="1284.5" cy="272.5" fill="#ADD1B2" rx="11" ry="11" style="stroke:#181818;stroke-width:1.0;"/><path d="M1287.2656,268.375 Q1287.4219,268.1563 1287.6094,268.0469 Q1287.7969,267.9375 1288.0156,267.9375 Q1288.3906,267.9375 1288.625,268.2031 Q1288.8594,268.4531 1288.8594,269.0625 L1288.8594,270.5156 Q1288.8594,271.125 1288.625,271.3906 Q1288.3906,271.6563 1288.0156,271.6563 Q1287.6719,271.6563 1287.4688,271.4531 Q1287.2656,271.2656 1287.1563,270.75 Q1287.1094,270.3906 1286.9219,270.2031 Q1286.5938,269.8281 1285.9844,269.6094 Q1285.375,269.3906 1284.75,269.3906 Q1283.9844,269.3906 1283.3438,269.7188 Q1282.7188,270.0469 1282.2188,270.7969 Q1281.7344,271.5469 1281.7344,272.5781 L1281.7344,273.6719 Q1281.7344,274.9063 1282.625,275.7344 Q1283.5156,276.5469 1285.1094,276.5469 Q1286.0469,276.5469 1286.7031,276.2969 Q1287.0938,276.1406 1287.5156,275.7031 Q1287.7813,275.4375 1287.9219,275.3594 Q1288.0781,275.2813 1288.2813,275.2813 Q1288.6094,275.2813 1288.8594,275.5469 Q1289.125,275.7969 1289.125,276.1406 Q1289.125,276.4844 1288.7813,276.8906 Q1288.2813,277.4688 1287.4844,277.7969 Q1286.4063,278.25 1285.1094,278.25 Q1283.5938,278.25 1282.3906,277.625 Q1281.4063,277.125 1280.7188,276.0625 Q1280.0313,274.9844 1280.0313,273.7031 L1280.0313,272.5469 Q1280.0313,271.2188 1280.6406,270.0781 Q1281.2656,268.9219 1282.3594,268.3125 Q1283.4531,267.6875 1284.6875,267.6875 Q1285.4219,267.6875 1286.0625,267.8594 Q1286.7188,268.0156 1287.2656,268.375 Z " fill="#000000"/><text fill="#000000" font-family="sans-serif" font-size="14" lengthAdjust="spacing" textLength="111" x="1298.5" y="278.2285">PlanePassengers</text><line style="stroke:#181818;stroke-width:0.5;" x1="1270.5" x2="1411.5" y1="288.5" y2="288.5"/><line style="stroke:#181818;stroke-width:0.5;" x1="1270.5" x2="1411.5" y1="296.5" y2="296.5"/></g><!--class PlaneFire--><g id="elem_PlaneFire"><rect codeLine="76" fill="#F1F1F1" height="48" id="PlaneFire" rx="2.5" ry="2.5" style="stroke:#181818;stroke-width:0.5;" width="93" x="1923.5" y="256.5"/><ellipse cx="1938.5" cy="272.5" fill="#ADD1B2" rx="11" ry="11" style="stroke:#181818;stroke-width:1.0;"/><path d="M1941.2656,268.375 Q1941.4219,268.1563 1941.6094,268.0469 Q1941.7969,267.9375 1942.0156,267.9375 Q1942.3906,267.9375 1942.625,268.2031 Q1942.8594,268.4531 1942.8594,269.0625 L1942.8594,270.5156 Q1942.8594,271.125 1942.625,271.3906 Q1942.3906,271.6563 1942.0156,271.6563 Q1941.6719,271.6563 1941.4688,271.4531 Q1941.2656,271.2656 1941.1563,270.75 Q1941.1094,270.3906 1940.9219,270.2031 Q1940.5938,269.8281 1939.9844,269.6094 Q1939.375,269.3906 1938.75,269.3906 Q1937.9844,269.3906 1937.3438,269.7188 Q1936.7188,270.0469 1936.2188,270.7969 Q1935.7344,271.5469 1935.7344,272.5781 L1935.7344,273.6719 Q1935.7344,274.9063 1936.625,275.7344 Q1937.5156,276.5469 1939.1094,276.5469 Q1940.0469,276.5469 1940.7031,276.2969 Q1941.0938,276.1406 1941.5156,275.7031 Q1941.7813,275.4375 1941.9219,275.3594 Q1942.0781,275.2813 1942.2813,275.2813 Q1942.6094,275.2813 1942.8594,275.5469 Q1943.125,275.7969 1943.125,276.1406 Q1943.125,276.4844 1942.7813,276.8906 Q1942.2813,277.4688 1941.4844,277.7969 Q1940.4063,278.25 1939.1094,278.25 Q1937.5938,278.25 1936.3906,277.625 Q1935.4063,277.125 1934.7188,276.0625 Q1934.0313,274.9844 1934.0313,273.7031 L1934.0313,272.5469 Q1934.0313,271.2188 1934.6406,270.0781 Q1935.2656,268.9219 1936.3594,268.3125 Q1937.4531,267.6875 1938.6875,267.6875 Q1939.4219,267.6875 1940.0625,267.8594 Q1940.7188,268.0156 1941.2656,268.375 Z " fill="#000000"/><text fill="#000000" font-family="sans-serif" font-size="14" lengthAdjust="spacing" textLength="61" x="1952.5" y="278.2285">PlaneFire</text><line style="stroke:#181818;stroke-width:0.5;" x1="1924.5" x2="2015.5" y1="288.5" y2="288.5"/><line style="stroke:#181818;stroke-width:0.5;" x1="1924.5" x2="2015.5" y1="296.5" y2="296.5"/></g><!--class PlaneRescue--><g id="elem_PlaneRescue"><rect codeLine="77" fill="#F1F1F1" height="48" id="PlaneRescue" rx="2.5" ry="2.5" style="stroke:#181818;stroke-width:0.5;" width="116" x="1772" y="256.5"/><ellipse cx="1787" cy="272.5" fill="#ADD1B2" rx="11" ry="11" style="stroke:#181818;stroke-width:1.0;"/><path d="M1789.7656,268.375 Q1789.9219,268.1563 1790.1094,268.0469 Q1790.2969,267.9375 1790.5156,267.9375 Q1790.8906,267.9375 1791.125,268.2031 Q1791.3594,268.4531 1791.3594,269.0625 L1791.3594,270.5156 Q1791.3594,271.125 1791.125,271.3906 Q1790.8906,271.6563 1790.5156,271.6563 Q1790.1719,271.6563 1789.9688,271.4531 Q1789.7656,271.2656 1789.6563,270.75 Q1789.6094,270.3906 1789.4219,270.2031 Q1789.0938,269.8281 1788.4844,269.6094 Q1787.875,269.3906 1787.25,269.3906 Q1786.4844,269.3906 1785.8438,269.7188 Q1785.2188,270.0469 1784.7188,270.7969 Q1784.2344,271.5469 1784.2344,272.5781 L1784.2344,273.6719 Q1784.2344,274.9063 1785.125,275.7344 Q1786.0156,276.5469 1787.6094,276.5469 Q1788.5469,276.5469 1789.2031,276.2969 Q1789.5938,276.1406 1790.0156,275.7031 Q1790.2813,275.4375 1790.4219,275.3594 Q1790.5781,275.2813 1790.7813,275.2813 Q1791.1094,275.2813 1791.3594,275.5469 Q1791.625,275.7969 1791.625,276.1406 Q1791.625,276.4844 1791.2813,276.8906 Q1790.7813,277.4688 1789.9844,277.7969 Q1788.9063,278.25 1787.6094,278.25 Q1786.0938,278.25 1784.8906,277.625 Q1783.9063,277.125 1783.2188,276.0625 Q1782.5313,274.9844 1782.5313,273.7031 L1782.5313,272.5469 Q1782.5313,271.2188 1783.1406,270.0781 Q1783.7656,268.9219 1784.8594,268.3125 Q1785.9531,267.6875 1787.1875,267.6875 Q1787.9219,267.6875 1788.5625,267.8594 Q1789.2188,268.0156 1789.7656,268.375 Z " fill="#000000"/><text fill="#000000" font-family="sans-serif" font-size="14" lengthAdjust="spacing" textLength="84" x="1801" y="278.2285">PlaneRescue</text><line style="stroke:#181818;stroke-width:0.5;" x1="1773" x2="1887" y1="288.5" y2="288.5"/><line style="stroke:#181818;stroke-width:0.5;" x1="1773" x2="1887" y1="296.5" y2="296.5"/></g><!--link PlaneTransport to Plane--><g id="link_PlaneTransport_Plane"><path codeLine="80" d="M1489.65,617.6 C1498.79,660.45 1509.5148,710.7861 1519.8648,759.3061 " fill="none" id="PlaneTransport-to-Plane" style="stroke:#181818;stroke-width:1.0;"/><polygon fill="none" points="1523.62,776.91,1525.7328,758.0543,1513.9969,760.5578,1523.62,776.91" style="stroke:#181818;stroke-width:1.0;"/></g><!--link PlaneSupport to Plane--><g id="link_PlaneSupport_Plane"><path codeLine="81" d="M1737.91,600.35 C1703.86,639.92 1645.5994,707.625 1597.6694,763.335 " fill="none" id="PlaneSupport-to-Plane" style="stroke:#181818;stroke-width:1.0;"/><polygon fill="none" points="1585.93,776.98,1602.2178,767.2482,1593.1211,759.4219,1585.93,776.98" style="stroke:#181818;stroke-width:1.0;"/></g><!--link PlaneCargo to PlaneTransport--><g id="link_PlaneCargo_PlaneTransport"><path codeLine="82" d="M1499.43,304.53 C1496.05,354.19 1489.2414,453.9515 1484.9914,516.4415 " fill="none" id="PlaneCargo-to-PlaneTransport" style="stroke:#181818;stroke-width:1.0;"/><polygon fill="none" points="1483.77,534.4,1490.9775,516.8486,1479.0052,516.0344,1483.77,534.4" style="stroke:#181818;stroke-width:1.0;"/></g><!--link PlanePassengers to PlaneTransport--><g id="link_PlanePassengers_PlaneTransport"><path codeLine="83" d="M1351.99,304.53 C1375.67,354.19 1424.0821,455.6628 1453.8821,518.1528 " fill="none" id="PlanePassengers-to-PlaneTransport" style="stroke:#181818;stroke-width:1.0;"/><polygon fill="none" points="1461.63,534.4,1459.2978,515.5702,1448.4664,520.7355,1461.63,534.4" style="stroke:#181818;stroke-width:1.0;"/></g><!--link PlaneFire to PlaneSupport--><g id="link_PlaneFire_PlaneSupport"><path codeLine="84" d="M1954.45,304.72 C1941.64,323.74 1922.88,351.28 1906,375 C1859.91,439.75 1814.4757,500.382 1786.4557,537.442 " fill="none" id="PlaneFire-to-PlaneSupport" style="stroke:#181818;stroke-width:1.0;"/><polygon fill="none" points="1775.6,551.8,1791.2417,541.0605,1781.6697,533.8234,1775.6,551.8" style="stroke:#181818;stroke-width:1.0;"/></g><!--link PlaneRescue to PlaneSupport--><g id="link_PlaneRescue_PlaneSupport"><path codeLine="85" d="M1824.35,304.53 C1810.92,359.26 1781.5086,479.1584 1768.0086,534.1884 " fill="none" id="PlaneRescue-to-PlaneSupport" style="stroke:#181818;stroke-width:1.0;"/><polygon fill="none" points="1763.72,551.67,1773.8358,535.6179,1762.1814,532.7588,1763.72,551.67" style="stroke:#181818;stroke-width:1.0;"/></g><!--link PlaneRecon to PlaneSupport--><g id="link_PlaneRecon_PlaneSupport"><path codeLine="86" d="M1687.96,304.53 C1702.14,359.26 1733.1977,479.2147 1747.4477,534.2447 " fill="none" id="PlaneRecon-to-PlaneSupport" style="stroke:#181818;stroke-width:1.0;"/><polygon fill="none" points="1751.96,551.67,1753.2562,532.7407,1741.6393,535.7488,1751.96,551.67" style="stroke:#181818;stroke-width:1.0;"/></g><!--link Airport to Position--><g id="link_Airport_Position"><path codeLine="87" d="M1134,653.01 C1134,699.24 1134,738.45 1134,776.25 " fill="none" id="Airport-to-Position" style="stroke:#181818;stroke-width:1.0;"/><polygon fill="none" points="1134,794.25,1140,776.25,1128,776.25,1134,794.25" style="stroke:#181818;stroke-width:1.0;"/></g><!--reverse link Airport to Plane--><g id="link_Airport_Plane"><path codeLine="88" d="M1262.5387,659.492 C1328.6587,701.932 1399.11,747.15 1457.44,784.58 " fill="none" id="Airport-backto-Plane" style="stroke:#181818;stroke-width:1.0;"/><polygon fill="#181818" points="1252.44,653.01,1255.3287,659.6172,1262.5387,659.492,1259.65,652.8848,1252.44,653.01" style="stroke:#181818;stroke-width:1.0;"/><text fill="#000000" font-family="sans-serif" font-size="13" lengthAdjust="spacing" textLength="7" x="1255.6768" y="674.1073">1</text><text fill="#000000" font-family="sans-serif" font-size="13" lengthAdjust="spacing" textLength="9" x="1440.5233" y="776.4076">N</text></g><!--reverse link Scenario to Airport--><g id="link_Scenario_Airport"><path codeLine="89" d="M996.6862,384.898 C1025.5262,424.828 1051.72,461.09 1079.01,498.87 " fill="none" id="Scenario-backto-Airport" style="stroke:#181818;stroke-width:1.0;"/><polygon fill="#181818" points="989.66,375.17,989.9304,382.376,996.6862,384.898,996.4157,377.6919,989.66,375.17" style="stroke:#181818;stroke-width:1.0;"/><text fill="#000000" font-family="sans-serif" font-size="13" lengthAdjust="spacing" textLength="7" x="987.3718" y="396.2224">1</text><text fill="#000000" font-family="sans-serif" font-size="13" lengthAdjust="spacing" textLength="9" x="1064.154" y="488.0194">N</text></g><!--link Scenario to Controller--><g id="link_Scenario_Controller"><path codeLine="90" d="M666.79,375.08 C654.63,380.31 642.64,385.63 631,391 C601.91,404.42 582.5409,413.8128 552.9809,429.2228 " fill="none" id="Scenario-to-Controller" style="stroke:#181818;stroke-width:1.0;"/><polygon fill="#181818" points="542.34,434.77,549.5095,435.5433,552.9809,429.2228,545.8114,428.4494,542.34,434.77" style="stroke:#181818;stroke-width:1.0;"/><text fill="#000000" font-family="sans-serif" font-size="13" lengthAdjust="spacing" textLength="7" x="639.9825" y="396.4471">1</text><text fill="#000000" font-family="sans-serif" font-size="13" lengthAdjust="spacing" textLength="7" x="548.5109" y="424.115">1</text></g><!--reverse link Controller to View--><g id="link_Controller_View"><path codeLine="91" d="M311.5336,422.8001 C311.6836,381.5301 310.36,351.57 307.66,322 " fill="none" id="Controller-backto-View" style="stroke:#181818;stroke-width:1.0;"/><polygon fill="#181818" points="311.49,434.8,315.5118,428.8146,311.5336,422.8001,307.5118,428.7855,311.49,434.8" style="stroke:#181818;stroke-width:1.0;"/><text fill="#000000" font-family="sans-serif" font-size="13" lengthAdjust="spacing" textLength="7" x="305.0363" y="424.1466">1</text><text fill="#000000" font-family="sans-serif" font-size="13" lengthAdjust="spacing" textLength="7" x="301.6803" y="343.7046">1</text></g><!--reverse link View to Controller--><g id="link_View_Controller"><path codeLine="92" d="M287.839,333.9556 C285.289,363.5256 285.12,393.53 285.26,434.8 " fill="none" id="View-backto-Controller" style="stroke:#181818;stroke-width:1.0;"/><polygon fill="none" points="288.87,322,284.3693,327.6341,287.839,333.9556,292.3397,328.3215,288.87,322" style="stroke:#181818;stroke-width:1.0;"/><text fill="#000000" font-family="sans-serif" font-size="13" lengthAdjust="spacing" textLength="7" x="279.7782" y="343.7046">1</text><text fill="#000000" font-family="sans-serif" font-size="13" lengthAdjust="spacing" textLength="7" x="277.3719" y="424.1466">1</text></g><!--reverse link Controller to Controller--><g id="link_Controller_Controller"><path codeLine="93" d="M584.3312,543.286 C605.9112,551.406 608,559.5 608,576 C608,592.5 594.68,604.82 573.1,612.94 " fill="none" id="Controller-backto-Controller" style="stroke:#181818;stroke-width:1.0;"/><polygon fill="#181818" points="573.1,539.06,577.3069,544.9168,584.3312,543.286,580.1243,537.4293,573.1,539.06" style="stroke:#181818;stroke-width:1.0;"/><text fill="#000000" font-family="sans-serif" font-size="13" lengthAdjust="spacing" textLength="7" x="581.3709" y="535.2269">1</text><text fill="#000000" font-family="sans-serif" font-size="13" lengthAdjust="spacing" textLength="7" x="581.3709" y="611.3002">1</text></g><!--reverse link IXmlSerializable to Scenario--><g id="link_IXmlSerializable_Scenario"><path codeLine="95" d="M1152.5284,135.6977 C1124.4784,153.1977 1105.7,164.91 1071.99,185.94 " fill="none" id="IXmlSerializable-backto-Scenario" style="stroke:#181818;stroke-width:1.0;stroke-dasharray:7.0,7.0;"/><polygon fill="none" points="1167.8,126.17,1149.3525,130.6072,1155.7043,140.7883,1167.8,126.17" style="stroke:#181818;stroke-width:1.0;"/></g><!--reverse link IXmlSerializable to Plane--><g id="link_IXmlSerializable_Plane"><path codeLine="96" d="M1316.8449,98.6496 C1405.8749,113.7996 1539.21,142.3 1572,186 C1589.14,208.85 1598.7,605.55 1573,741 C1570.74,752.89 1567.02,765.2 1562.77,776.84 " fill="none" id="IXmlSerializable-backto-Plane" style="stroke:#181818;stroke-width:1.0;stroke-dasharray:7.0,7.0;"/><polygon fill="none" points="1299.1,95.63,1315.8384,104.5646,1317.8514,92.7346,1299.1,95.63" style="stroke:#181818;stroke-width:1.0;"/></g><!--reverse link IXmlSerializable to Airport--><g id="link_IXmlSerializable_Airport"><path codeLine="97" d="M1234.9543,144.3557 C1236.1943,200.9557 1234.75,288.08 1215,375 C1205.37,417.38 1187.84,462.41 1171.54,499 " fill="none" id="IXmlSerializable-backto-Airport" style="stroke:#181818;stroke-width:1.0;stroke-dasharray:7.0,7.0;"/><polygon fill="none" points="1234.56,126.36,1228.9557,144.4871,1240.9528,144.2243,1234.56,126.36" style="stroke:#181818;stroke-width:1.0;"/></g><!--SRC=[xLLDZzCm43tNlyBgQR-2n1sGbbsAaDYb8brOX11odMbbAR63unQMRlyx7jjnd3JLNlR89RRVp3pFyunZ3TmmkIw1RZT0TsJ2IzOqz8k0txYQP5TA6gtA4ZJzoUFSMivdIbTqPJzaiYTxGdIaYZ4RRKayOy9ZUL_d0ZsDacHoJdCEaccXuWH1bm9-S954lmVJhKvEqRfLeg2NHN4fTAsqEScDjlHKiWekg926_l73Wnzgcm_8DUY5PgkLu1xbJAzLG3hMTuKmBIrwYUA2FYFzDTX3WFu6FKdpaabuIb1J0nH-MZ7xjOSeEIn41HrNphRG7czoQXyLAqRWpz20wUC-X-y_i00XuURGul9jd18cjAfFoQ0tRbG1PUoAMFaT4WLQozHkG156ifc6NnkG_64cD1o0Dbs-6OEvRx3_3NAyGMnr4D4hne5-kA_A7BHWfVZBbYNukhYzlcfXm9fxNS8AZrWINz2vQeGHIlf0tF2-dNn3BxPiZ6RSolNkcBtt3H9khGHSHY8xQHbobD4kRlf2Zf7R4vKD7bwN4Relr5l5TD67hc7fm2DK-QOEH55kACou0eonlUolHBlJV53y5hzAoeyORC6YdwIBlgiBPk2vovv8SxlJtJx5tEtfGp7vfe_ZfHm6uutSkSi_g4EMFRxnJgHth4FSvzIXaO4CSZdkWtabrh0JIJ8yRhNYHunjmRqbz6X4fo-dz2pBwFHs6fJ47rng2kvzOvQTkR5xt4ZowiLmExf7qJsFk581VJekyI075_tLO_QYUt_7pLxIk2re-WS0]--></g></svg>