<?xml version="1.0" encoding="us-ascii" standalone="no"?><svg xmlns="http://www.w3.org/2000/svg" xmlns:xlink="http://www.w3.org/1999/xlink" contentStyleType="text/css" height="1340px" preserveAspectRatio="none" style="width:1898px;height:1340px;background:#FFFFFF;" version="1.1" viewBox="0 0 1898 1340" width="1898px" zoomAndPan="magnify"><defs/><g><text fill="#000000" font-family="sans-serif" font-size="14" font-weight="bold" lengthAdjust="spacing" textLength="245" x="827.25" y="29.5332">Time step through O.T.A.I simulator</text><rect fill="#FFFFFF" height="22.3516" style="stroke:#181818;stroke-width:1.0;" width="10" x="17.5" y="131.2188"/><rect fill="#FFFFFF" height="1087.2656" style="stroke:#181818;stroke-width:1.0;" width="10" x="180.5" y="153.5703"/><rect fill="#FFFFFF" height="1056.9141" style="stroke:#181818;stroke-width:1.0;" width="10" x="343.5" y="183.9219"/><rect fill="#FFFFFF" height="1012.5625" style="stroke:#181818;stroke-width:1.0;" width="10" x="439.5" y="214.2734"/><rect fill="#FFFFFF" height="253.9766" style="stroke:#181818;stroke-width:1.0;" width="10" x="444.5" y="252.625"/><rect fill="#FFFFFF" height="187.4492" style="stroke:#181818;stroke-width:1.0;" width="10" x="609.5" y="299.1523"/><rect fill="#FFFFFF" height="105.5703" style="stroke:#181818;stroke-width:1.0;" width="10" x="743.5" y="350.6797"/><rect fill="#FFFFFF" height="32.6094" style="stroke:#181818;stroke-width:1.0;" width="10" x="835.5" y="393.2891"/><rect fill="#FFFFFF" height="440.125" style="stroke:#181818;stroke-width:1.0;" width="10" x="905.5" y="543.9531"/><rect fill="#FFFFFF" height="286.0703" style="stroke:#181818;stroke-width:1.0;" width="10" x="910.5" y="582.3047"/><rect fill="#FFFFFF" height="30.3516" style="stroke:#181818;stroke-width:1.0;" width="10" x="1131.5" y="617.6563"/><rect fill="#FFFFFF" height="14" style="stroke:#181818;stroke-width:1.0;" width="10" x="1256.5" y="678.3594"/><rect fill="#FFFFFF" height="114.4883" style="stroke:#181818;stroke-width:1.0;" width="10" x="1256.5" y="733.8867"/><rect fill="#FFFFFF" height="32.6094" style="stroke:#181818;stroke-width:1.0;" width="10" x="1402.5" y="785.4141"/><rect fill="#FFFFFF" height="61.3516" style="stroke:#181818;stroke-width:1.0;" width="10" x="1493.5" y="908.7266"/><rect fill="#FFFFFF" height="61.3516" style="stroke:#181818;stroke-width:1.0;" width="10" x="1493.5" y="1017.4297"/><rect fill="#FFFFFF" height="14" style="stroke:#181818;stroke-width:1.0;" width="10" x="1589.5" y="942.0781"/><rect fill="#FFFFFF" height="14" style="stroke:#181818;stroke-width:1.0;" width="10" x="1589.5" y="1050.7813"/><rect fill="#FFFFFF" height="103.7031" style="stroke:#181818;stroke-width:1.0;" width="10" x="1658" y="1109.1328"/><rect fill="#FFFFFF" height="30" style="stroke:#181818;stroke-width:1.0;" width="10" x="1873" y="1182.8359"/><line style="stroke:#181818;stroke-width:0.5;stroke-dasharray:5.0,5.0;" x1="22" x2="22" y1="121.2188" y2="1258.8359"/><line style="stroke:#181818;stroke-width:0.5;stroke-dasharray:5.0,5.0;" x1="185.5" x2="185.5" y1="121.2188" y2="1258.8359"/><line style="stroke:#181818;stroke-width:0.5;stroke-dasharray:5.0,5.0;" x1="348.5" x2="348.5" y1="121.2188" y2="1258.8359"/><line style="stroke:#181818;stroke-width:0.5;stroke-dasharray:5.0,5.0;" x1="444.5" x2="444.5" y1="121.2188" y2="1258.8359"/><line style="stroke:#181818;stroke-width:0.5;stroke-dasharray:5.0,5.0;" x1="614.5" x2="614.5" y1="121.2188" y2="1258.8359"/><line style="stroke:#181818;stroke-width:0.5;stroke-dasharray:5.0,5.0;" x1="748.5" x2="748.5" y1="349.6328" y2="1258.8359"/><line style="stroke:#181818;stroke-width:0.5;stroke-dasharray:5.0,5.0;" x1="840.5" x2="840.5" y1="392.2422" y2="1258.8359"/><line style="stroke:#181818;stroke-width:0.5;stroke-dasharray:5.0,5.0;" x1="910.5" x2="910.5" y1="121.2188" y2="1258.8359"/><line style="stroke:#181818;stroke-width:0.5;stroke-dasharray:5.0,5.0;" x1="1136.5" x2="1136.5" y1="121.2188" y2="1258.8359"/><line style="stroke:#181818;stroke-width:0.5;stroke-dasharray:5.0,5.0;" x1="1261.5" x2="1261.5" y1="121.2188" y2="1258.8359"/><line style="stroke:#181818;stroke-width:0.5;stroke-dasharray:5.0,5.0;" x1="1407.5" x2="1407.5" y1="784.3672" y2="1258.8359"/><line style="stroke:#181818;stroke-width:0.5;stroke-dasharray:5.0,5.0;" x1="1498.5" x2="1498.5" y1="121.2188" y2="1258.8359"/><line style="stroke:#181818;stroke-width:0.5;stroke-dasharray:5.0,5.0;" x1="1594" x2="1594" y1="121.2188" y2="1258.8359"/><line style="stroke:#181818;stroke-width:0.5;stroke-dasharray:5.0,5.0;" x1="1663" x2="1663" y1="121.2188" y2="1258.8359"/><line style="stroke:#181818;stroke-width:0.5;stroke-dasharray:5.0,5.0;" x1="1877.5" x2="1877.5" y1="121.2188" y2="1258.8359"/><text fill="#000000" font-family="sans-serif" font-size="14" lengthAdjust="spacing" textLength="29" x="5" y="118.1426">User</text><ellipse cx="22.5" cy="52.1094" fill="#ADFF2F" rx="8" ry="8" style="stroke:#181818;stroke-width:0.5;"/><path d="M22.5,60.1094 L22.5,87.1094 M9.5,68.1094 L35.5,68.1094 M22.5,87.1094 L9.5,102.1094 M22.5,87.1094 L35.5,102.1094 " fill="none" style="stroke:#181818;stroke-width:0.5;"/><text fill="#000000" font-family="sans-serif" font-size="14" lengthAdjust="spacing" textLength="29" x="5" y="1272.3691">User</text><ellipse cx="22.5" cy="1283.9453" fill="#ADFF2F" rx="8" ry="8" style="stroke:#181818;stroke-width:0.5;"/><path d="M22.5,1291.9453 L22.5,1318.9453 M9.5,1299.9453 L35.5,1299.9453 M22.5,1318.9453 L9.5,1333.9453 M22.5,1318.9453 L35.5,1333.9453 " fill="none" style="stroke:#181818;stroke-width:0.5;"/><rect fill="#A5C5A5" height="31.6094" rx="2.5" ry="2.5" style="stroke:#181818;stroke-width:0.5;" width="70" x="150.5" y="88.6094"/><text fill="#000000" font-family="sans-serif" font-size="14" lengthAdjust="spacing" textLength="56" x="157.5" y="110.1426">SimForm</text><rect fill="#A5C5A5" height="31.6094" rx="2.5" ry="2.5" style="stroke:#181818;stroke-width:0.5;" width="70" x="150.5" y="1257.8359"/><text fill="#000000" font-family="sans-serif" font-size="14" lengthAdjust="spacing" textLength="56" x="157.5" y="1279.3691">SimForm</text><rect fill="#E2E2F0" height="31.6094" rx="2.5" ry="2.5" style="stroke:#181818;stroke-width:0.5;" width="76" x="310.5" y="88.6094"/><text fill="#000000" font-family="sans-serif" font-size="14" lengthAdjust="spacing" textLength="62" x="317.5" y="110.1426">Controller</text><rect fill="#E2E2F0" height="31.6094" rx="2.5" ry="2.5" style="stroke:#181818;stroke-width:0.5;" width="76" x="310.5" y="1257.8359"/><text fill="#000000" font-family="sans-serif" font-size="14" lengthAdjust="spacing" textLength="62" x="317.5" y="1279.3691">Controller</text><rect fill="#C5A5A5" height="31.6094" rx="2.5" ry="2.5" style="stroke:#181818;stroke-width:0.5;" width="70" x="409.5" y="88.6094"/><text fill="#000000" font-family="sans-serif" font-size="14" lengthAdjust="spacing" textLength="56" x="416.5" y="110.1426">Scenario</text><rect fill="#C5A5A5" height="31.6094" rx="2.5" ry="2.5" style="stroke:#181818;stroke-width:0.5;" width="70" x="409.5" y="1257.8359"/><text fill="#000000" font-family="sans-serif" font-size="14" lengthAdjust="spacing" textLength="56" x="416.5" y="1279.3691">Scenario</text><rect fill="#E2E2F0" height="31.6094" rx="2.5" ry="2.5" style="stroke:#181818;stroke-width:0.5;" width="148" x="540.5" y="88.6094"/><text fill="#000000" font-family="sans-serif" font-size="14" lengthAdjust="spacing" textLength="134" x="547.5" y="110.1426">ClientSupportFactory</text><rect fill="#E2E2F0" height="31.6094" rx="2.5" ry="2.5" style="stroke:#181818;stroke-width:0.5;" width="148" x="540.5" y="1257.8359"/><text fill="#000000" font-family="sans-serif" font-size="14" lengthAdjust="spacing" textLength="134" x="547.5" y="1279.3691">ClientSupportFactory</text><rect fill="#E2E2F0" height="31.6094" rx="2.5" ry="2.5" style="stroke:#181818;stroke-width:0.5;" width="100" x="698.5" y="1257.8359"/><text fill="#000000" font-family="sans-serif" font-size="14" lengthAdjust="spacing" textLength="86" x="705.5" y="1279.3691">ClientSupport</text><rect fill="#E2E2F0" height="31.6094" rx="2.5" ry="2.5" style="stroke:#181818;stroke-width:0.5;" width="64" x="808.5" y="1257.8359"/><text fill="#000000" font-family="sans-serif" font-size="14" lengthAdjust="spacing" textLength="50" x="815.5" y="1279.3691">Position</text><rect fill="#E2E2F0" height="31.6094" rx="2.5" ry="2.5" style="stroke:#181818;stroke-width:0.5;" width="56" x="882.5" y="88.6094"/><text fill="#000000" font-family="sans-serif" font-size="14" lengthAdjust="spacing" textLength="42" x="889.5" y="110.1426">Airport</text><rect fill="#E2E2F0" height="31.6094" rx="2.5" ry="2.5" style="stroke:#181818;stroke-width:0.5;" width="56" x="882.5" y="1257.8359"/><text fill="#000000" font-family="sans-serif" font-size="14" lengthAdjust="spacing" textLength="42" x="889.5" y="1279.3691">Airport</text><rect fill="#C5A5A5" height="31.6094" rx="2.5" ry="2.5" style="stroke:#181818;stroke-width:0.5;" width="70" x="1101.5" y="88.6094"/><text fill="#000000" font-family="sans-serif" font-size="14" lengthAdjust="spacing" textLength="56" x="1108.5" y="110.1426">Scenario</text><rect fill="#C5A5A5" height="31.6094" rx="2.5" ry="2.5" style="stroke:#181818;stroke-width:0.5;" width="70" x="1101.5" y="1257.8359"/><text fill="#000000" font-family="sans-serif" font-size="14" lengthAdjust="spacing" textLength="56" x="1108.5" y="1279.3691">Scenario</text><rect fill="#E2E2F0" height="31.6094" rx="2.5" ry="2.5" style="stroke:#181818;stroke-width:0.5;" width="160" x="1181.5" y="88.6094"/><text fill="#000000" font-family="sans-serif" font-size="14" lengthAdjust="spacing" textLength="146" x="1188.5" y="110.1426">ClientTransportFactory</text><rect fill="#E2E2F0" height="31.6094" rx="2.5" ry="2.5" style="stroke:#181818;stroke-width:0.5;" width="160" x="1181.5" y="1257.8359"/><text fill="#000000" font-family="sans-serif" font-size="14" lengthAdjust="spacing" textLength="146" x="1188.5" y="1279.3691">ClientTransportFactory</text><rect fill="#E2E2F0" height="31.6094" rx="2.5" ry="2.5" style="stroke:#181818;stroke-width:0.5;" width="112" x="1351.5" y="1257.8359"/><text fill="#000000" font-family="sans-serif" font-size="14" lengthAdjust="spacing" textLength="98" x="1358.5" y="1279.3691">ClientTransport</text><rect fill="#E2E2F0" height="31.6094" rx="2.5" ry="2.5" style="stroke:#181818;stroke-width:0.5;" width="50" x="1473.5" y="88.6094"/><text fill="#000000" font-family="sans-serif" font-size="14" lengthAdjust="spacing" textLength="36" x="1480.5" y="110.1426">Plane</text><rect fill="#E2E2F0" height="31.6094" rx="2.5" ry="2.5" style="stroke:#181818;stroke-width:0.5;" width="50" x="1473.5" y="1257.8359"/><text fill="#000000" font-family="sans-serif" font-size="14" lengthAdjust="spacing" textLength="36" x="1480.5" y="1279.3691">Plane</text><rect fill="#E2E2F0" height="31.6094" rx="2.5" ry="2.5" style="stroke:#181818;stroke-width:0.5;" width="47" x="1571" y="88.6094"/><text fill="#000000" font-family="sans-serif" font-size="14" lengthAdjust="spacing" textLength="33" x="1578" y="110.1426">State</text><rect fill="#E2E2F0" height="31.6094" rx="2.5" ry="2.5" style="stroke:#181818;stroke-width:0.5;" width="47" x="1571" y="1257.8359"/><text fill="#000000" font-family="sans-serif" font-size="14" lengthAdjust="spacing" textLength="33" x="1578" y="1279.3691">State</text><rect fill="#A5C5A5" height="31.6094" rx="2.5" ry="2.5" style="stroke:#181818;stroke-width:0.5;" width="70" x="1628" y="88.6094"/><text fill="#000000" font-family="sans-serif" font-size="14" lengthAdjust="spacing" textLength="56" x="1635" y="110.1426">SimForm</text><rect fill="#A5C5A5" height="31.6094" rx="2.5" ry="2.5" style="stroke:#181818;stroke-width:0.5;" width="70" x="1628" y="1257.8359"/><text fill="#000000" font-family="sans-serif" font-size="14" lengthAdjust="spacing" textLength="56" x="1635" y="1279.3691">SimForm</text><text fill="#000000" font-family="sans-serif" font-size="14" lengthAdjust="spacing" textLength="29" x="1860.5" y="118.1426">User</text><ellipse cx="1878" cy="52.1094" fill="#ADFF2F" rx="8" ry="8" style="stroke:#181818;stroke-width:0.5;"/><path d="M1878,60.1094 L1878,87.1094 M1865,68.1094 L1891,68.1094 M1878,87.1094 L1865,102.1094 M1878,87.1094 L1891,102.1094 " fill="none" style="stroke:#181818;stroke-width:0.5;"/><text fill="#000000" font-family="sans-serif" font-size="14" lengthAdjust="spacing" textLength="29" x="1860.5" y="1272.3691">User</text><ellipse cx="1878" cy="1283.9453" fill="#ADFF2F" rx="8" ry="8" style="stroke:#181818;stroke-width:0.5;"/><path d="M1878,1291.9453 L1878,1318.9453 M1865,1299.9453 L1891,1299.9453 M1878,1318.9453 L1865,1333.9453 M1878,1318.9453 L1891,1333.9453 " fill="none" style="stroke:#181818;stroke-width:0.5;"/><rect fill="#FFFFFF" height="22.3516" style="stroke:#181818;stroke-width:1.0;" width="10" x="17.5" y="131.2188"/><rect fill="#FFFFFF" height="1087.2656" style="stroke:#181818;stroke-width:1.0;" width="10" x="180.5" y="153.5703"/><rect fill="#FFFFFF" height="1056.9141" style="stroke:#181818;stroke-width:1.0;" width="10" x="343.5" y="183.9219"/><rect fill="#FFFFFF" height="1012.5625" style="stroke:#181818;stroke-width:1.0;" width="10" x="439.5" y="214.2734"/><rect fill="#FFFFFF" height="253.9766" style="stroke:#181818;stroke-width:1.0;" width="10" x="444.5" y="252.625"/><rect fill="#FFFFFF" height="187.4492" style="stroke:#181818;stroke-width:1.0;" width="10" x="609.5" y="299.1523"/><rect fill="#FFFFFF" height="105.5703" style="stroke:#181818;stroke-width:1.0;" width="10" x="743.5" y="350.6797"/><rect fill="#FFFFFF" height="32.6094" style="stroke:#181818;stroke-width:1.0;" width="10" x="835.5" y="393.2891"/><rect fill="#FFFFFF" height="440.125" style="stroke:#181818;stroke-width:1.0;" width="10" x="905.5" y="543.9531"/><rect fill="#FFFFFF" height="286.0703" style="stroke:#181818;stroke-width:1.0;" width="10" x="910.5" y="582.3047"/><rect fill="#FFFFFF" height="30.3516" style="stroke:#181818;stroke-width:1.0;" width="10" x="1131.5" y="617.6563"/><rect fill="#FFFFFF" height="14" style="stroke:#181818;stroke-width:1.0;" width="10" x="1256.5" y="678.3594"/><rect fill="#FFFFFF" height="114.4883" style="stroke:#181818;stroke-width:1.0;" width="10" x="1256.5" y="733.8867"/><rect fill="#FFFFFF" height="32.6094" style="stroke:#181818;stroke-width:1.0;" width="10" x="1402.5" y="785.4141"/><rect fill="#FFFFFF" height="61.3516" style="stroke:#181818;stroke-width:1.0;" width="10" x="1493.5" y="908.7266"/><rect fill="#FFFFFF" height="61.3516" style="stroke:#181818;stroke-width:1.0;" width="10" x="1493.5" y="1017.4297"/><rect fill="#FFFFFF" height="14" style="stroke:#181818;stroke-width:1.0;" width="10" x="1589.5" y="942.0781"/><rect fill="#FFFFFF" height="14" style="stroke:#181818;stroke-width:1.0;" width="10" x="1589.5" y="1050.7813"/><rect fill="#FFFFFF" height="103.7031" style="stroke:#181818;stroke-width:1.0;" width="10" x="1658" y="1109.1328"/><rect fill="#FFFFFF" height="30" style="stroke:#181818;stroke-width:1.0;" width="10" x="1873" y="1182.8359"/><polygon fill="#181818" points="168.5,149.5703,178.5,153.5703,168.5,157.5703,172.5,153.5703" style="stroke:#181818;stroke-width:1.0;"/><line style="stroke:#181818;stroke-width:1.0;" x1="22.5" x2="174.5" y1="153.5703" y2="153.5703"/><text fill="#000000" font-family="sans-serif" font-size="13" lengthAdjust="spacing" textLength="134" x="29.5" y="148.7139">Clicks time step button</text><polygon fill="#181818" points="331.5,179.9219,341.5,183.9219,331.5,187.9219,335.5,183.9219" style="stroke:#181818;stroke-width:1.0;"/><line style="stroke:#181818;stroke-width:1.0;" x1="190.5" x2="337.5" y1="183.9219" y2="183.9219"/><text fill="#000000" font-family="sans-serif" font-size="13" lengthAdjust="spacing" textLength="134" x="197.5" y="179.0654">StepTimeButtonClick(t)</text><polygon fill="#181818" points="427.5,210.2734,437.5,214.2734,427.5,218.2734,431.5,214.2734" style="stroke:#181818;stroke-width:1.0;"/><line style="stroke:#181818;stroke-width:1.0;" x1="353.5" x2="433.5" y1="214.2734" y2="214.2734"/><text fill="#000000" font-family="sans-serif" font-size="13" lengthAdjust="spacing" textLength="67" x="360.5" y="209.417">TimeStep(t)</text><line style="stroke:#181818;stroke-width:1.0;" x1="449.5" x2="496.5" y1="239.625" y2="239.625"/><line style="stroke:#181818;stroke-width:1.0;" x1="496.5" x2="496.5" y1="239.625" y2="252.625"/><line style="stroke:#181818;stroke-width:1.0;" x1="455.5" x2="496.5" y1="252.625" y2="252.625"/><polygon fill="#181818" points="465.5,248.625,455.5,252.625,465.5,256.625,461.5,252.625" style="stroke:#181818;stroke-width:1.0;"/><text fill="#000000" font-family="sans-serif" font-size="13" lengthAdjust="spacing" textLength="146" x="461.5" y="234.7686">GenerateClientsSupport()</text><polygon fill="#181818" points="597.5,295.1523,607.5,299.1523,597.5,303.1523,601.5,299.1523" style="stroke:#181818;stroke-width:1.0;"/><line style="stroke:#181818;stroke-width:1.0;" x1="454.5" x2="603.5" y1="299.1523" y2="299.1523"/><text fill="#000000" font-family="sans-serif" font-size="13" lengthAdjust="spacing" textLength="97" x="461.5" y="294.2959">createClient[...]()</text><path d="M624,270.625 L624,312.625 L845,312.625 L845,280.625 L835,270.625 L624,270.625 " fill="#FEFFDD" style="stroke:#181818;stroke-width:0.5;"/><path d="M835,270.625 L835,280.625 L845,280.625 L835,270.625 " fill="#FEFFDD" style="stroke:#181818;stroke-width:0.5;"/><text fill="#000000" font-family="sans-serif" font-size="13" lengthAdjust="spacing" textLength="197" x="630" y="289.1201">[...] Meaning any of the 3 possible</text><text fill="#000000" font-family="sans-serif" font-size="13" lengthAdjust="spacing" textLength="196" x="634" y="305.4717">functions to create support clients</text><polygon fill="#181818" points="686.5,336.6797,696.5,340.6797,686.5,344.6797,690.5,340.6797" style="stroke:#181818;stroke-width:1.0;"/><line style="stroke:#181818;stroke-width:1.0;" x1="619.5" x2="692.5" y1="340.6797" y2="340.6797"/><text fill="#000000" font-family="sans-serif" font-size="13" lengthAdjust="spacing" textLength="23" x="626.5" y="335.8232">new</text><rect fill="#E2E2F0" height="31.6094" rx="2.5" ry="2.5" style="stroke:#181818;stroke-width:0.5;" width="100" x="698.5" y="318.3281"/><text fill="#000000" font-family="sans-serif" font-size="14" lengthAdjust="spacing" textLength="86" x="705.5" y="339.8613">ClientSupport</text><polygon fill="#181818" points="796.5,379.2891,806.5,383.2891,796.5,387.2891,800.5,383.2891" style="stroke:#181818;stroke-width:1.0;"/><line style="stroke:#181818;stroke-width:1.0;" x1="753.5" x2="802.5" y1="383.2891" y2="383.2891"/><text fill="#000000" font-family="sans-serif" font-size="13" lengthAdjust="spacing" textLength="23" x="760.5" y="378.4326">new</text><rect fill="#E2E2F0" height="31.6094" rx="2.5" ry="2.5" style="stroke:#181818;stroke-width:0.5;" width="64" x="808.5" y="360.9375"/><text fill="#000000" font-family="sans-serif" font-size="14" lengthAdjust="spacing" textLength="50" x="815.5" y="382.4707">Position</text><polygon fill="#181818" points="764.5,421.8984,754.5,425.8984,764.5,429.8984,760.5,425.8984" style="stroke:#181818;stroke-width:1.0;"/><line style="stroke:#181818;stroke-width:1.0;stroke-dasharray:2.0,2.0;" x1="758.5" x2="839.5" y1="425.8984" y2="425.8984"/><text fill="#000000" font-family="sans-serif" font-size="13" lengthAdjust="spacing" textLength="47" x="770.5" y="421.042">Position</text><polygon fill="#181818" points="630.5,452.25,620.5,456.25,630.5,460.25,626.5,456.25" style="stroke:#181818;stroke-width:1.0;"/><line style="stroke:#181818;stroke-width:1.0;stroke-dasharray:2.0,2.0;" x1="624.5" x2="747.5" y1="456.25" y2="456.25"/><text fill="#000000" font-family="sans-serif" font-size="13" lengthAdjust="spacing" textLength="78" x="636.5" y="451.3936">ClientSupport</text><polygon fill="#181818" points="465.5,482.6016,455.5,486.6016,465.5,490.6016,461.5,486.6016" style="stroke:#181818;stroke-width:1.0;"/><line style="stroke:#181818;stroke-width:1.0;stroke-dasharray:2.0,2.0;" x1="459.5" x2="613.5" y1="486.6016" y2="486.6016"/><text fill="#000000" font-family="sans-serif" font-size="13" lengthAdjust="spacing" textLength="78" x="471.5" y="481.7451">ClientSupport</text><line style="stroke:#181818;stroke-width:1.0;stroke-dasharray:2.0,2.0;" x1="454.5" x2="496.5" y1="505.6016" y2="505.6016"/><line style="stroke:#181818;stroke-width:1.0;stroke-dasharray:2.0,2.0;" x1="496.5" x2="496.5" y1="505.6016" y2="518.6016"/><line style="stroke:#181818;stroke-width:1.0;stroke-dasharray:2.0,2.0;" x1="449.5" x2="496.5" y1="518.6016" y2="518.6016"/><polygon fill="#181818" points="459.5,514.6016,449.5,518.6016,459.5,522.6016,455.5,518.6016" style="stroke:#181818;stroke-width:1.0;"/><polygon fill="#181818" points="893.5,539.9531,903.5,543.9531,893.5,547.9531,897.5,543.9531" style="stroke:#181818;stroke-width:1.0;"/><line style="stroke:#181818;stroke-width:1.0;" x1="449.5" x2="899.5" y1="543.9531" y2="543.9531"/><text fill="#000000" font-family="sans-serif" font-size="13" lengthAdjust="spacing" textLength="67" x="456.5" y="539.0967">TimeStep(t)</text><line style="stroke:#181818;stroke-width:1.0;" x1="915.5" x2="962.5" y1="569.3047" y2="569.3047"/><line style="stroke:#181818;stroke-width:1.0;" x1="962.5" x2="962.5" y1="569.3047" y2="582.3047"/><line style="stroke:#181818;stroke-width:1.0;" x1="921.5" x2="962.5" y1="582.3047" y2="582.3047"/><polygon fill="#181818" points="931.5,578.3047,921.5,582.3047,931.5,586.3047,927.5,582.3047" style="stroke:#181818;stroke-width:1.0;"/><text fill="#000000" font-family="sans-serif" font-size="13" lengthAdjust="spacing" textLength="155" x="927.5" y="564.4482">GenerateClientsTransport()</text><polygon fill="#181818" points="1119.5,613.6563,1129.5,617.6563,1119.5,621.6563,1123.5,617.6563" style="stroke:#181818;stroke-width:1.0;"/><line style="stroke:#181818;stroke-width:1.0;" x1="920.5" x2="1125.5" y1="617.6563" y2="617.6563"/><text fill="#000000" font-family="sans-serif" font-size="13" lengthAdjust="spacing" textLength="192" x="927.5" y="612.7998">GetRandomAirportExcluding(self)</text><polygon fill="#181818" points="931.5,644.0078,921.5,648.0078,931.5,652.0078,927.5,648.0078" style="stroke:#181818;stroke-width:1.0;"/><line style="stroke:#181818;stroke-width:1.0;stroke-dasharray:2.0,2.0;" x1="925.5" x2="1135.5" y1="648.0078" y2="648.0078"/><text fill="#000000" font-family="sans-serif" font-size="13" lengthAdjust="spacing" textLength="38" x="937.5" y="643.1514">Airport</text><polygon fill="#181818" points="1244.5,674.3594,1254.5,678.3594,1244.5,682.3594,1248.5,678.3594" style="stroke:#181818;stroke-width:1.0;"/><line style="stroke:#181818;stroke-width:1.0;" x1="920.5" x2="1250.5" y1="678.3594" y2="678.3594"/><text fill="#000000" font-family="sans-serif" font-size="13" lengthAdjust="spacing" textLength="169" x="927.5" y="673.5029">SetDestinationAirport(Airport)</text><polygon fill="#181818" points="931.5,688.3594,921.5,692.3594,931.5,696.3594,927.5,692.3594" style="stroke:#181818;stroke-width:1.0;"/><line style="stroke:#181818;stroke-width:1.0;stroke-dasharray:2.0,2.0;" x1="925.5" x2="1260.5" y1="692.3594" y2="692.3594"/><polygon fill="#181818" points="1244.5,729.8867,1254.5,733.8867,1244.5,737.8867,1248.5,733.8867" style="stroke:#181818;stroke-width:1.0;"/><line style="stroke:#181818;stroke-width:1.0;" x1="920.5" x2="1250.5" y1="733.8867" y2="733.8867"/><text fill="#000000" font-family="sans-serif" font-size="13" lengthAdjust="spacing" textLength="97" x="927.5" y="729.0303">createClient[...]()</text><path d="M675,705.3594 L675,747.3594 L900,747.3594 L900,715.3594 L890,705.3594 L675,705.3594 " fill="#FEFFDD" style="stroke:#181818;stroke-width:0.5;"/><path d="M890,705.3594 L890,715.3594 L900,715.3594 L890,705.3594 " fill="#FEFFDD" style="stroke:#181818;stroke-width:0.5;"/><text fill="#000000" font-family="sans-serif" font-size="13" lengthAdjust="spacing" textLength="197" x="681" y="723.8545">[...] Meaning any of the 2 possible</text><text fill="#000000" font-family="sans-serif" font-size="13" lengthAdjust="spacing" textLength="204" x="681" y="740.2061">functions to create transport clients</text><polygon fill="#181818" points="1339.5,771.4141,1349.5,775.4141,1339.5,779.4141,1343.5,775.4141" style="stroke:#181818;stroke-width:1.0;"/><line style="stroke:#181818;stroke-width:1.0;" x1="1266.5" x2="1345.5" y1="775.4141" y2="775.4141"/><text fill="#000000" font-family="sans-serif" font-size="13" lengthAdjust="spacing" textLength="23" x="1273.5" y="770.5576">new</text><rect fill="#E2E2F0" height="31.6094" rx="2.5" ry="2.5" style="stroke:#181818;stroke-width:0.5;" width="112" x="1351.5" y="753.0625"/><text fill="#000000" font-family="sans-serif" font-size="14" lengthAdjust="spacing" textLength="98" x="1358.5" y="774.5957">ClientTransport</text><polygon fill="#181818" points="1277.5,814.0234,1267.5,818.0234,1277.5,822.0234,1273.5,818.0234" style="stroke:#181818;stroke-width:1.0;"/><line style="stroke:#181818;stroke-width:1.0;stroke-dasharray:2.0,2.0;" x1="1271.5" x2="1406.5" y1="818.0234" y2="818.0234"/><text fill="#000000" font-family="sans-serif" font-size="13" lengthAdjust="spacing" textLength="87" x="1283.5" y="813.167">ClientTransport</text><polygon fill="#181818" points="931.5,844.375,921.5,848.375,931.5,852.375,927.5,848.375" style="stroke:#181818;stroke-width:1.0;"/><line style="stroke:#181818;stroke-width:1.0;stroke-dasharray:2.0,2.0;" x1="925.5" x2="1260.5" y1="848.375" y2="848.375"/><text fill="#000000" font-family="sans-serif" font-size="13" lengthAdjust="spacing" textLength="87" x="937.5" y="843.5186">ClientTransport</text><line style="stroke:#181818;stroke-width:1.0;stroke-dasharray:2.0,2.0;" x1="920.5" x2="962.5" y1="867.375" y2="867.375"/><line style="stroke:#181818;stroke-width:1.0;stroke-dasharray:2.0,2.0;" x1="962.5" x2="962.5" y1="867.375" y2="880.375"/><line style="stroke:#181818;stroke-width:1.0;stroke-dasharray:2.0,2.0;" x1="915.5" x2="962.5" y1="880.375" y2="880.375"/><polygon fill="#181818" points="925.5,876.375,915.5,880.375,925.5,884.375,921.5,880.375" style="stroke:#181818;stroke-width:1.0;"/><polygon fill="#181818" points="1481.5,904.7266,1491.5,908.7266,1481.5,912.7266,1485.5,908.7266" style="stroke:#181818;stroke-width:1.0;"/><line style="stroke:#181818;stroke-width:1.0;" x1="915.5" x2="1487.5" y1="908.7266" y2="908.7266"/><text fill="#000000" font-family="sans-serif" font-size="13" lengthAdjust="spacing" textLength="67" x="922.5" y="903.8701">TimeStep(t)</text><path d="M1508,888.375 L1508,914.375 L1675,914.375 L1675,898.375 L1665,888.375 L1508,888.375 " fill="#FEFFDD" style="stroke:#181818;stroke-width:0.5;"/><path d="M1665,888.375 L1665,898.375 L1675,898.375 L1665,888.375 " fill="#FEFFDD" style="stroke:#181818;stroke-width:0.5;"/><text fill="#000000" font-family="sans-serif" font-size="13" lengthAdjust="spacing" textLength="146" x="1514" y="906.8701">The planes in the airports</text><polygon fill="#181818" points="1577.5,938.0781,1587.5,942.0781,1577.5,946.0781,1581.5,942.0781" style="stroke:#181818;stroke-width:1.0;"/><line style="stroke:#181818;stroke-width:1.0;" x1="1503.5" x2="1583.5" y1="942.0781" y2="942.0781"/><text fill="#000000" font-family="sans-serif" font-size="13" lengthAdjust="spacing" textLength="67" x="1510.5" y="937.2217">TimeStep(t)</text><polygon fill="#181818" points="1514.5,952.0781,1504.5,956.0781,1514.5,960.0781,1510.5,956.0781" style="stroke:#181818;stroke-width:1.0;"/><line style="stroke:#181818;stroke-width:1.0;stroke-dasharray:2.0,2.0;" x1="1508.5" x2="1593.5" y1="956.0781" y2="956.0781"/><polygon fill="#181818" points="926.5,966.0781,916.5,970.0781,926.5,974.0781,922.5,970.0781" style="stroke:#181818;stroke-width:1.0;"/><line style="stroke:#181818;stroke-width:1.0;stroke-dasharray:2.0,2.0;" x1="920.5" x2="1497.5" y1="970.0781" y2="970.0781"/><polygon fill="#181818" points="460.5,980.0781,450.5,984.0781,460.5,988.0781,456.5,984.0781" style="stroke:#181818;stroke-width:1.0;"/><line style="stroke:#181818;stroke-width:1.0;stroke-dasharray:2.0,2.0;" x1="454.5" x2="909.5" y1="984.0781" y2="984.0781"/><polygon fill="#181818" points="1481.5,1013.4297,1491.5,1017.4297,1481.5,1021.4297,1485.5,1017.4297" style="stroke:#181818;stroke-width:1.0;"/><line style="stroke:#181818;stroke-width:1.0;" x1="449.5" x2="1487.5" y1="1017.4297" y2="1017.4297"/><text fill="#000000" font-family="sans-serif" font-size="13" lengthAdjust="spacing" textLength="67" x="456.5" y="1012.5732">TimeStep(t)</text><path d="M1508,997.0781 L1508,1023.0781 L1653,1023.0781 L1653,1007.0781 L1643,997.0781 L1508,997.0781 " fill="#FEFFDD" style="stroke:#181818;stroke-width:0.5;"/><path d="M1643,997.0781 L1643,1007.0781 L1653,1007.0781 L1643,997.0781 " fill="#FEFFDD" style="stroke:#181818;stroke-width:0.5;"/><text fill="#000000" font-family="sans-serif" font-size="13" lengthAdjust="spacing" textLength="124" x="1514" y="1015.5732">The planes in the sky</text><polygon fill="#181818" points="1577.5,1046.7813,1587.5,1050.7813,1577.5,1054.7813,1581.5,1050.7813" style="stroke:#181818;stroke-width:1.0;"/><line style="stroke:#181818;stroke-width:1.0;" x1="1503.5" x2="1583.5" y1="1050.7813" y2="1050.7813"/><text fill="#000000" font-family="sans-serif" font-size="13" lengthAdjust="spacing" textLength="67" x="1510.5" y="1045.9248">TimeStep(t)</text><polygon fill="#181818" points="1514.5,1060.7813,1504.5,1064.7813,1514.5,1068.7813,1510.5,1064.7813" style="stroke:#181818;stroke-width:1.0;"/><line style="stroke:#181818;stroke-width:1.0;stroke-dasharray:2.0,2.0;" x1="1508.5" x2="1593.5" y1="1064.7813" y2="1064.7813"/><polygon fill="#181818" points="460.5,1074.7813,450.5,1078.7813,460.5,1082.7813,456.5,1078.7813" style="stroke:#181818;stroke-width:1.0;"/><line style="stroke:#181818;stroke-width:1.0;stroke-dasharray:2.0,2.0;" x1="454.5" x2="1497.5" y1="1078.7813" y2="1078.7813"/><ellipse cx="1657.5" cy="1108.3828" fill="none" rx="4" ry="4" style="stroke:#181818;stroke-width:1.5;"/><polygon fill="#181818" points="1640.5,1105.1328,1650.5,1109.1328,1640.5,1113.1328,1644.5,1109.1328" style="stroke:#181818;stroke-width:1.0;"/><line style="stroke:#181818;stroke-width:1.0;" x1="449.5" x2="1646.5" y1="1109.1328" y2="1109.1328"/><text fill="#000000" font-family="sans-serif" font-size="13" lengthAdjust="spacing" textLength="269" x="456.5" y="1104.2764">(EVENT) MapUpdate.Invoke(string[] MapState)</text><line style="stroke:#181818;stroke-width:1.0;" x1="1668" x2="1710" y1="1139.4844" y2="1139.4844"/><line style="stroke:#181818;stroke-width:1.0;" x1="1710" x2="1710" y1="1139.4844" y2="1152.4844"/><line style="stroke:#181818;stroke-width:1.0;" x1="1669" x2="1710" y1="1152.4844" y2="1152.4844"/><polygon fill="#181818" points="1679,1148.4844,1669,1152.4844,1679,1156.4844,1675,1152.4844" style="stroke:#181818;stroke-width:1.0;"/><text fill="#000000" font-family="sans-serif" font-size="13" lengthAdjust="spacing" textLength="191" x="1675" y="1134.6279">OnMapUpdate(string[] MapState)</text><polygon fill="#181818" points="1861,1178.8359,1871,1182.8359,1861,1186.8359,1865,1182.8359" style="stroke:#181818;stroke-width:1.0;"/><line style="stroke:#181818;stroke-width:1.0;" x1="1668" x2="1867" y1="1182.8359" y2="1182.8359"/><text fill="#000000" font-family="sans-serif" font-size="13" lengthAdjust="spacing" textLength="129" x="1675" y="1177.9795">Displays updated map</text><polygon fill="#181818" points="364.5,1222.8359,354.5,1226.8359,364.5,1230.8359,360.5,1226.8359" style="stroke:#181818;stroke-width:1.0;"/><line style="stroke:#181818;stroke-width:1.0;stroke-dasharray:2.0,2.0;" x1="358.5" x2="443.5" y1="1226.8359" y2="1226.8359"/><polygon fill="#181818" points="196.5,1236.8359,186.5,1240.8359,196.5,1244.8359,192.5,1240.8359" style="stroke:#181818;stroke-width:1.0;"/><line style="stroke:#181818;stroke-width:1.0;stroke-dasharray:2.0,2.0;" x1="190.5" x2="347.5" y1="1240.8359" y2="1240.8359"/><!--SRC=[hLNBRjim4BppAnR9HJbKY5NauaE1j7627D8KjLEWI7EWPTeXGfC2kKhgl-_o8LbIRGKeUk9hPZNapgvGeXAma5i13aK5-6nDlNc6-toHN-QtuEIsLXoDPOoNDC39WnFs1BY3fLbEuFJ62g5_2gNCso540SQkX8NY_BoFhRX5MSgAQuIvt5uRkuLJVb5Uy8lUsSaNez4QfLBC4gsQz17pKcXkfGddZXQ2TFb0VuLIKcYSrrLbB5u7jRj0MllvP0GSFwsaesKVziquYTBeWAYC6qIvbBRb-ycxqeinwGlBjJielXY5D_BHkg5ynRM8wlniA0yvnbFdPyFJcBOeWYP5cq3l1FbAZ60Ine9LFdng4pq54bY-EC3MUCiQqMYs4drgkqfKnbWJXE85Cr2qEKNm7luSWeJO6PxjoT4qBCA9bqmo3SRtv1uwdZAMK5ty3OsMCF5zNN97DagEvY9oQKLBVSpp_8busX37oiqp4Y1imftWMkeDSBq3iwQA5F3HEyl9fHA_DAnhNNh7qUkP51DS5E9px7NjvIHdiuHhB9mq-IUCE_HrBTuwBvQ03J4uky4IpQ-7d81XLc1jDJHrqQnxvJIwsNsxK3B7yXJhYKLC1pn8Kbi5sGWtrPudutUkLsQRAdVskrJrYlAHEQ7MmqGNxNqJl1CorgLtfy0huL1gxXya0RCqdWrojOzuADHH2ocn7dLGqN7G8GDXyqX7B5HqBHJQID8KBUHt3bWe0Fl9RhFnpdOthw4p3LpGAvm5tJ2W74WTxilZwtQkaVeRIz5ypaDFEze5OiThzGp7hal_GQ1xsVr_RNjD9dNaAMIp7xElYpEuuzL3jI9UVgjVpOl875eooUEJFmcDlcj5JsOinl06JC7kTHlc47zF2B_-ALn9HtVQEQW3PmLRNlL-3lIHViilkkiaet_D7YFz3Fu0]--></g></svg>